<?xml version="1.0" encoding="utf-8" standalone="no"?>
<!DOCTYPE svg PUBLIC "-//W3C//DTD SVG 1.1//EN"
  "http://www.w3.org/Graphics/SVG/1.1/DTD/svg11.dtd">
<svg xmlns:xlink="http://www.w3.org/1999/xlink" width="460.8pt" height="345.6pt" viewBox="0 0 460.8 345.6" xmlns="http://www.w3.org/2000/svg" version="1.1">
 <metadata>
  <rdf:RDF xmlns:dc="http://purl.org/dc/elements/1.1/" xmlns:cc="http://creativecommons.org/ns#" xmlns:rdf="http://www.w3.org/1999/02/22-rdf-syntax-ns#">
   <cc:Work>
    <dc:type rdf:resource="http://purl.org/dc/dcmitype/StillImage"/>
    <dc:date>2023-05-25T16:45:56.282846</dc:date>
    <dc:format>image/svg+xml</dc:format>
    <dc:creator>
     <cc:Agent>
      <dc:title>Matplotlib v3.7.1, https://matplotlib.org/</dc:title>
     </cc:Agent>
    </dc:creator>
   </cc:Work>
  </rdf:RDF>
 </metadata>
 <defs>
  <style type="text/css">*{stroke-linejoin: round; stroke-linecap: butt}</style>
 </defs>
 <g id="figure_1">
  <g id="patch_1">
   <path d="M 0 345.6 
L 460.8 345.6 
L 460.8 0 
L 0 0 
z
" style="fill: #ffffff"/>
  </g>
  <g id="axes_1">
   <g id="patch_2">
    <path d="M 57.6 307.584 
L 414.72 307.584 
L 414.72 41.472 
L 57.6 41.472 
z
" style="fill: #ffffff"/>
   </g>
   <g id="matplotlib.axis_1">
    <g id="xtick_1">
     <g id="line2d_1">
      <defs>
       <path id="mb329495791" d="M 0 0 
L 0 3.5 
" style="stroke: #000000; stroke-width: 0.8"/>
      </defs>
      <g>
       <use xlink:href="#mb329495791" x="106.298182" y="307.584" style="stroke: #000000; stroke-width: 0.8"/>
      </g>
     </g>
     <g id="text_1">
      <!-- −4 -->
      <g transform="translate(98.927088 322.182437) scale(0.1 -0.1)">
       <defs>
        <path id="DejaVuSans-2212" d="M 678 2272 
L 4684 2272 
L 4684 1741 
L 678 1741 
L 678 2272 
z
" transform="scale(0.015625)"/>
        <path id="DejaVuSans-34" d="M 2419 4116 
L 825 1625 
L 2419 1625 
L 2419 4116 
z
M 2253 4666 
L 3047 4666 
L 3047 1625 
L 3713 1625 
L 3713 1100 
L 3047 1100 
L 3047 0 
L 2419 0 
L 2419 1100 
L 313 1100 
L 313 1709 
L 2253 4666 
z
" transform="scale(0.015625)"/>
       </defs>
       <use xlink:href="#DejaVuSans-2212"/>
       <use xlink:href="#DejaVuSans-34" x="83.789062"/>
      </g>
     </g>
    </g>
    <g id="xtick_2">
     <g id="line2d_2">
      <g>
       <use xlink:href="#mb329495791" x="171.229091" y="307.584" style="stroke: #000000; stroke-width: 0.8"/>
      </g>
     </g>
     <g id="text_2">
      <!-- −2 -->
      <g transform="translate(163.857997 322.182437) scale(0.1 -0.1)">
       <defs>
        <path id="DejaVuSans-32" d="M 1228 531 
L 3431 531 
L 3431 0 
L 469 0 
L 469 531 
Q 828 903 1448 1529 
Q 2069 2156 2228 2338 
Q 2531 2678 2651 2914 
Q 2772 3150 2772 3378 
Q 2772 3750 2511 3984 
Q 2250 4219 1831 4219 
Q 1534 4219 1204 4116 
Q 875 4013 500 3803 
L 500 4441 
Q 881 4594 1212 4672 
Q 1544 4750 1819 4750 
Q 2544 4750 2975 4387 
Q 3406 4025 3406 3419 
Q 3406 3131 3298 2873 
Q 3191 2616 2906 2266 
Q 2828 2175 2409 1742 
Q 1991 1309 1228 531 
z
" transform="scale(0.015625)"/>
       </defs>
       <use xlink:href="#DejaVuSans-2212"/>
       <use xlink:href="#DejaVuSans-32" x="83.789062"/>
      </g>
     </g>
    </g>
    <g id="xtick_3">
     <g id="line2d_3">
      <g>
       <use xlink:href="#mb329495791" x="236.16" y="307.584" style="stroke: #000000; stroke-width: 0.8"/>
      </g>
     </g>
     <g id="text_3">
      <!-- 0 -->
      <g transform="translate(232.97875 322.182437) scale(0.1 -0.1)">
       <defs>
        <path id="DejaVuSans-30" d="M 2034 4250 
Q 1547 4250 1301 3770 
Q 1056 3291 1056 2328 
Q 1056 1369 1301 889 
Q 1547 409 2034 409 
Q 2525 409 2770 889 
Q 3016 1369 3016 2328 
Q 3016 3291 2770 3770 
Q 2525 4250 2034 4250 
z
M 2034 4750 
Q 2819 4750 3233 4129 
Q 3647 3509 3647 2328 
Q 3647 1150 3233 529 
Q 2819 -91 2034 -91 
Q 1250 -91 836 529 
Q 422 1150 422 2328 
Q 422 3509 836 4129 
Q 1250 4750 2034 4750 
z
" transform="scale(0.015625)"/>
       </defs>
       <use xlink:href="#DejaVuSans-30"/>
      </g>
     </g>
    </g>
    <g id="xtick_4">
     <g id="line2d_4">
      <g>
       <use xlink:href="#mb329495791" x="301.090909" y="307.584" style="stroke: #000000; stroke-width: 0.8"/>
      </g>
     </g>
     <g id="text_4">
      <!-- 2 -->
      <g transform="translate(297.909659 322.182437) scale(0.1 -0.1)">
       <use xlink:href="#DejaVuSans-32"/>
      </g>
     </g>
    </g>
    <g id="xtick_5">
     <g id="line2d_5">
      <g>
       <use xlink:href="#mb329495791" x="366.021818" y="307.584" style="stroke: #000000; stroke-width: 0.8"/>
      </g>
     </g>
     <g id="text_5">
      <!-- 4 -->
      <g transform="translate(362.840568 322.182437) scale(0.1 -0.1)">
       <use xlink:href="#DejaVuSans-34"/>
      </g>
     </g>
    </g>
   </g>
   <g id="matplotlib.axis_2">
    <g id="ytick_1">
     <g id="line2d_6">
      <defs>
       <path id="m56674a2899" d="M 0 0 
L -3.5 0 
" style="stroke: #000000; stroke-width: 0.8"/>
      </defs>
      <g>
       <use xlink:href="#m56674a2899" x="57.6" y="295.488" style="stroke: #000000; stroke-width: 0.8"/>
      </g>
     </g>
     <g id="text_6">
      <!-- 0.0 -->
      <g transform="translate(34.696875 299.287219) scale(0.1 -0.1)">
       <defs>
        <path id="DejaVuSans-2e" d="M 684 794 
L 1344 794 
L 1344 0 
L 684 0 
L 684 794 
z
" transform="scale(0.015625)"/>
       </defs>
       <use xlink:href="#DejaVuSans-30"/>
       <use xlink:href="#DejaVuSans-2e" x="63.623047"/>
       <use xlink:href="#DejaVuSans-30" x="95.410156"/>
      </g>
     </g>
    </g>
    <g id="ytick_2">
     <g id="line2d_7">
      <g>
       <use xlink:href="#m56674a2899" x="57.6" y="247.103848" style="stroke: #000000; stroke-width: 0.8"/>
      </g>
     </g>
     <g id="text_7">
      <!-- 0.2 -->
      <g transform="translate(34.696875 250.903067) scale(0.1 -0.1)">
       <use xlink:href="#DejaVuSans-30"/>
       <use xlink:href="#DejaVuSans-2e" x="63.623047"/>
       <use xlink:href="#DejaVuSans-32" x="95.410156"/>
      </g>
     </g>
    </g>
    <g id="ytick_3">
     <g id="line2d_8">
      <g>
       <use xlink:href="#m56674a2899" x="57.6" y="198.719697" style="stroke: #000000; stroke-width: 0.8"/>
      </g>
     </g>
     <g id="text_8">
      <!-- 0.4 -->
      <g transform="translate(34.696875 202.518916) scale(0.1 -0.1)">
       <use xlink:href="#DejaVuSans-30"/>
       <use xlink:href="#DejaVuSans-2e" x="63.623047"/>
       <use xlink:href="#DejaVuSans-34" x="95.410156"/>
      </g>
     </g>
    </g>
    <g id="ytick_4">
     <g id="line2d_9">
      <g>
       <use xlink:href="#m56674a2899" x="57.6" y="150.335545" style="stroke: #000000; stroke-width: 0.8"/>
      </g>
     </g>
     <g id="text_9">
      <!-- 0.6 -->
      <g transform="translate(34.696875 154.134764) scale(0.1 -0.1)">
       <defs>
        <path id="DejaVuSans-36" d="M 2113 2584 
Q 1688 2584 1439 2293 
Q 1191 2003 1191 1497 
Q 1191 994 1439 701 
Q 1688 409 2113 409 
Q 2538 409 2786 701 
Q 3034 994 3034 1497 
Q 3034 2003 2786 2293 
Q 2538 2584 2113 2584 
z
M 3366 4563 
L 3366 3988 
Q 3128 4100 2886 4159 
Q 2644 4219 2406 4219 
Q 1781 4219 1451 3797 
Q 1122 3375 1075 2522 
Q 1259 2794 1537 2939 
Q 1816 3084 2150 3084 
Q 2853 3084 3261 2657 
Q 3669 2231 3669 1497 
Q 3669 778 3244 343 
Q 2819 -91 2113 -91 
Q 1303 -91 875 529 
Q 447 1150 447 2328 
Q 447 3434 972 4092 
Q 1497 4750 2381 4750 
Q 2619 4750 2861 4703 
Q 3103 4656 3366 4563 
z
" transform="scale(0.015625)"/>
       </defs>
       <use xlink:href="#DejaVuSans-30"/>
       <use xlink:href="#DejaVuSans-2e" x="63.623047"/>
       <use xlink:href="#DejaVuSans-36" x="95.410156"/>
      </g>
     </g>
    </g>
    <g id="ytick_5">
     <g id="line2d_10">
      <g>
       <use xlink:href="#m56674a2899" x="57.6" y="101.951394" style="stroke: #000000; stroke-width: 0.8"/>
      </g>
     </g>
     <g id="text_10">
      <!-- 0.8 -->
      <g transform="translate(34.696875 105.750613) scale(0.1 -0.1)">
       <defs>
        <path id="DejaVuSans-38" d="M 2034 2216 
Q 1584 2216 1326 1975 
Q 1069 1734 1069 1313 
Q 1069 891 1326 650 
Q 1584 409 2034 409 
Q 2484 409 2743 651 
Q 3003 894 3003 1313 
Q 3003 1734 2745 1975 
Q 2488 2216 2034 2216 
z
M 1403 2484 
Q 997 2584 770 2862 
Q 544 3141 544 3541 
Q 544 4100 942 4425 
Q 1341 4750 2034 4750 
Q 2731 4750 3128 4425 
Q 3525 4100 3525 3541 
Q 3525 3141 3298 2862 
Q 3072 2584 2669 2484 
Q 3125 2378 3379 2068 
Q 3634 1759 3634 1313 
Q 3634 634 3220 271 
Q 2806 -91 2034 -91 
Q 1263 -91 848 271 
Q 434 634 434 1313 
Q 434 1759 690 2068 
Q 947 2378 1403 2484 
z
M 1172 3481 
Q 1172 3119 1398 2916 
Q 1625 2713 2034 2713 
Q 2441 2713 2670 2916 
Q 2900 3119 2900 3481 
Q 2900 3844 2670 4047 
Q 2441 4250 2034 4250 
Q 1625 4250 1398 4047 
Q 1172 3844 1172 3481 
z
" transform="scale(0.015625)"/>
       </defs>
       <use xlink:href="#DejaVuSans-30"/>
       <use xlink:href="#DejaVuSans-2e" x="63.623047"/>
       <use xlink:href="#DejaVuSans-38" x="95.410156"/>
      </g>
     </g>
    </g>
    <g id="ytick_6">
     <g id="line2d_11">
      <g>
       <use xlink:href="#m56674a2899" x="57.6" y="53.567242" style="stroke: #000000; stroke-width: 0.8"/>
      </g>
     </g>
     <g id="text_11">
      <!-- 1.0 -->
      <g transform="translate(34.696875 57.366461) scale(0.1 -0.1)">
       <defs>
        <path id="DejaVuSans-31" d="M 794 531 
L 1825 531 
L 1825 4091 
L 703 3866 
L 703 4441 
L 1819 4666 
L 2450 4666 
L 2450 531 
L 3481 531 
L 3481 0 
L 794 0 
L 794 531 
z
" transform="scale(0.015625)"/>
       </defs>
       <use xlink:href="#DejaVuSans-31"/>
       <use xlink:href="#DejaVuSans-2e" x="63.623047"/>
       <use xlink:href="#DejaVuSans-30" x="95.410156"/>
      </g>
     </g>
    </g>
   </g>
   <g id="line2d_12">
    <path d="M 73.832727 295.488 
L 172.301523 295.382528 
L 177.501196 295.134719 
L 180.750991 294.774152 
L 183.350827 294.270522 
L 185.625684 293.586062 
L 187.575561 292.743479 
L 189.200459 291.803276 
L 190.825356 290.590306 
L 192.450254 289.042944 
L 193.750172 287.517574 
L 195.05009 285.694198 
L 196.350008 283.530619 
L 197.649926 280.982398 
L 198.949844 278.003614 
L 200.249762 274.547841 
L 201.87466 269.487873 
L 203.499558 263.527075 
L 205.124455 256.591408 
L 206.749353 248.622622 
L 208.374251 239.584235 
L 210.324128 227.316382 
L 212.274005 213.547278 
L 214.548862 195.765765 
L 217.148698 173.638184 
L 225.923145 97.19163 
L 227.873022 83.124435 
L 229.49792 73.107057 
L 230.797838 66.412611 
L 232.097756 61.025038 
L 233.072695 57.903329 
L 234.047633 55.60692 
L 234.697592 54.546995 
L 235.347551 53.870059 
L 235.99751 53.579362 
L 236.647469 53.6763 
L 237.297428 54.160407 
L 237.947387 55.029358 
L 238.597346 56.27899 
L 239.572285 58.853665 
L 240.547224 62.24351 
L 241.522162 66.412611 
L 242.82208 73.107057 
L 244.121998 80.98585 
L 245.746896 92.283756 
L 247.696773 107.560666 
L 250.296609 129.916655 
L 258.096118 198.408038 
L 260.370975 215.941895 
L 262.320852 229.467571 
L 264.270729 241.478345 
L 265.895627 250.301142 
L 267.520524 258.059602 
L 269.145422 264.795045 
L 270.770319 270.56935 
L 272.395217 275.459027 
L 274.020115 279.549729 
L 275.645012 282.9314 
L 276.94493 285.1869 
L 278.569828 287.517574 
L 280.194726 289.382408 
L 281.819623 290.857558 
L 283.444521 292.011314 
L 285.069419 292.903618 
L 287.019296 293.701339 
L 289.294152 294.347518 
L 291.893989 294.821438 
L 295.143784 295.15944 
L 299.693497 295.373908 
L 307.493006 295.472497 
L 338.69104 295.487999 
L 398.487273 295.488 
L 398.487273 295.488 
" clip-path="url(#pe0076d4ea3)" style="fill: none; stroke: #1f77b4; stroke-width: 1.5; stroke-linecap: square"/>
   </g>
   <g id="line2d_13">
    <path d="M 73.832727 295.487098 
L 109.255495 295.371653 
L 119.004881 295.128276 
L 125.504472 294.761861 
L 130.704144 294.250551 
L 134.928878 293.61549 
L 138.503653 292.864382 
L 141.753448 291.9603 
L 144.678264 290.922347 
L 147.2781 289.784921 
L 149.877936 288.409669 
L 152.477772 286.758945 
L 154.752629 285.056675 
L 157.027486 283.083496 
L 159.302342 280.80932 
L 161.577199 278.203281 
L 163.852056 275.234256 
L 166.126912 271.871474 
L 168.401769 268.085234 
L 170.676626 263.847707 
L 172.951482 259.133826 
L 175.226339 253.922237 
L 177.501196 248.1963 
L 180.101032 241.008873 
L 182.700868 233.13027 
L 185.300704 224.568543 
L 188.22552 214.149551 
L 191.475315 201.665541 
L 195.05009 186.972275 
L 199.274824 168.612338 
L 213.248943 106.893359 
L 216.173759 95.327623 
L 218.773595 85.885879 
L 221.048452 78.404695 
L 222.998329 72.652584 
L 224.948206 67.571685 
L 226.573104 63.888273 
L 228.198002 60.734129 
L 229.49792 58.607538 
L 230.797838 56.844583 
L 232.097756 55.453641 
L 233.397674 54.441349 
L 234.372613 53.933603 
L 235.347551 53.642982 
L 236.32249 53.570273 
L 237.297428 53.71567 
L 238.272367 54.078782 
L 239.247305 54.658627 
L 240.222244 55.453641 
L 241.522162 56.844583 
L 242.82208 58.607538 
L 244.121998 60.734129 
L 245.746896 63.888273 
L 247.371794 67.571685 
L 249.321671 72.652584 
L 251.271548 78.404695 
L 253.546405 85.885879 
L 256.146241 95.327623 
L 259.071057 106.893359 
L 262.645831 122.047864 
L 267.845504 145.231224 
L 275.645012 180.017015 
L 279.544767 196.429278 
L 283.119541 210.500298 
L 286.044357 221.185993 
L 288.969173 231.053247 
L 291.569009 239.103949 
L 294.168845 246.46416 
L 296.768681 253.136058 
L 299.043538 258.420229 
L 301.318395 263.204003 
L 303.593251 267.508121 
L 305.868108 271.357182 
L 308.142965 274.778674 
L 310.417821 277.802083 
L 312.692678 280.458073 
L 314.967535 282.777756 
L 317.242391 284.792069 
L 319.517248 286.531239 
L 322.117084 288.2192 
L 324.716921 289.626761 
L 327.316757 290.791968 
L 330.241572 291.856288 
L 333.491368 292.784319 
L 337.066143 293.556219 
L 340.965897 294.16767 
L 345.51561 294.656349 
L 351.365242 295.042023 
L 358.839771 295.296137 
L 370.539034 295.441932 
L 397.512334 295.486953 
L 398.487273 295.487098 
L 398.487273 295.487098 
" clip-path="url(#pe0076d4ea3)" style="fill: none; stroke: #ff7f0e; stroke-width: 1.5; stroke-linecap: square"/>
   </g>
   <g id="line2d_14">
    <path d="M 73.832727 284.858744 
L 78.057461 283.007641 
L 81.957215 281.068306 
L 85.85697 278.887606 
L 89.756724 276.44593 
L 93.656478 273.723769 
L 97.231253 270.965739 
L 100.806028 267.941822 
L 104.380803 264.638666 
L 107.955577 261.043977 
L 111.530352 257.14681 
L 115.105127 252.937867 
L 119.004881 247.982133 
L 122.904636 242.640192 
L 126.80439 236.909248 
L 130.704144 230.790624 
L 134.928878 223.731557 
L 139.153612 216.238493 
L 143.703325 207.708275 
L 148.578018 198.079486 
L 153.77769 187.315938 
L 159.952301 173.995166 
L 168.07679 155.873759 
L 183.350827 121.693955 
L 189.200459 109.239033 
L 193.750172 100.037783 
L 197.974906 91.983845 
L 201.87466 85.047401 
L 205.449435 79.168062 
L 208.69923 74.263433 
L 211.624046 70.237216 
L 214.548862 66.602615 
L 217.148698 63.717788 
L 219.748534 61.172559 
L 222.023391 59.233474 
L 224.298247 57.570555 
L 226.573104 56.189839 
L 228.847961 55.096361 
L 230.797838 54.390773 
L 232.747715 53.901077 
L 234.697592 53.628594 
L 236.647469 53.57406 
L 238.597346 53.737624 
L 240.547224 54.118842 
L 242.497101 54.716686 
L 244.446978 55.529542 
L 246.396855 56.55522 
L 248.671712 58.017124 
L 250.946568 59.759607 
L 253.221425 61.77635 
L 255.821261 64.407657 
L 258.421097 67.375343 
L 261.020934 70.665641 
L 263.945749 74.733976 
L 266.870565 79.168062 
L 270.12036 84.493159 
L 273.695135 90.792585 
L 277.594889 98.1338 
L 281.819623 106.560593 
L 286.694316 116.780269 
L 292.868927 130.277619 
L 302.943292 152.940574 
L 313.017658 175.420187 
L 319.517248 189.369136 
L 325.0419 200.693704 
L 329.916593 210.192375 
L 334.466306 218.589143 
L 338.69104 225.950592 
L 342.915774 232.872977 
L 346.815528 238.862793 
L 350.715283 244.464004 
L 354.615037 249.676708 
L 358.514791 254.504974 
L 362.414545 258.956382 
L 365.98932 262.7148 
L 369.564095 266.17553 
L 373.13887 269.350165 
L 376.713645 272.251515 
L 380.613399 275.121118 
L 384.513153 277.700616 
L 388.412907 280.009352 
L 392.312662 282.066922 
L 396.537396 284.035198 
L 398.487273 284.858744 
L 398.487273 284.858744 
" clip-path="url(#pe0076d4ea3)" style="fill: none; stroke: #2ca02c; stroke-width: 1.5; stroke-linecap: square"/>
   </g>
   <g id="patch_3">
    <path d="M 57.6 307.584 
L 57.6 41.472 
" style="fill: none; stroke: #000000; stroke-width: 0.8; stroke-linejoin: miter; stroke-linecap: square"/>
   </g>
   <g id="patch_4">
    <path d="M 414.72 307.584 
L 414.72 41.472 
" style="fill: none; stroke: #000000; stroke-width: 0.8; stroke-linejoin: miter; stroke-linecap: square"/>
   </g>
   <g id="patch_5">
    <path d="M 57.6 307.584 
L 414.72 307.584 
" style="fill: none; stroke: #000000; stroke-width: 0.8; stroke-linejoin: miter; stroke-linecap: square"/>
   </g>
   <g id="patch_6">
    <path d="M 57.6 41.472 
L 414.72 41.472 
" style="fill: none; stroke: #000000; stroke-width: 0.8; stroke-linejoin: miter; stroke-linecap: square"/>
   </g>
   <g id="legend_1">
    <g id="patch_7">
     <path d="M 314.87625 93.506375 
L 407.72 93.506375 
Q 409.72 93.506375 409.72 91.506375 
L 409.72 48.472 
Q 409.72 46.472 407.72 46.472 
L 314.87625 46.472 
Q 312.87625 46.472 312.87625 48.472 
L 312.87625 91.506375 
Q 312.87625 93.506375 314.87625 93.506375 
z
" style="fill: #ffffff; opacity: 0.8; stroke: #cccccc; stroke-linejoin: miter"/>
    </g>
    <g id="line2d_15">
     <path d="M 316.87625 54.570438 
L 326.87625 54.570438 
L 336.87625 54.570438 
" style="fill: none; stroke: #1f77b4; stroke-width: 1.5; stroke-linecap: square"/>
    </g>
    <g id="text_12">
     <!-- sigma = 0.5 -->
     <g transform="translate(344.87625 58.070438) scale(0.1 -0.1)">
      <defs>
       <path id="DejaVuSans-73" d="M 2834 3397 
L 2834 2853 
Q 2591 2978 2328 3040 
Q 2066 3103 1784 3103 
Q 1356 3103 1142 2972 
Q 928 2841 928 2578 
Q 928 2378 1081 2264 
Q 1234 2150 1697 2047 
L 1894 2003 
Q 2506 1872 2764 1633 
Q 3022 1394 3022 966 
Q 3022 478 2636 193 
Q 2250 -91 1575 -91 
Q 1294 -91 989 -36 
Q 684 19 347 128 
L 347 722 
Q 666 556 975 473 
Q 1284 391 1588 391 
Q 1994 391 2212 530 
Q 2431 669 2431 922 
Q 2431 1156 2273 1281 
Q 2116 1406 1581 1522 
L 1381 1569 
Q 847 1681 609 1914 
Q 372 2147 372 2553 
Q 372 3047 722 3315 
Q 1072 3584 1716 3584 
Q 2034 3584 2315 3537 
Q 2597 3491 2834 3397 
z
" transform="scale(0.015625)"/>
       <path id="DejaVuSans-69" d="M 603 3500 
L 1178 3500 
L 1178 0 
L 603 0 
L 603 3500 
z
M 603 4863 
L 1178 4863 
L 1178 4134 
L 603 4134 
L 603 4863 
z
" transform="scale(0.015625)"/>
       <path id="DejaVuSans-67" d="M 2906 1791 
Q 2906 2416 2648 2759 
Q 2391 3103 1925 3103 
Q 1463 3103 1205 2759 
Q 947 2416 947 1791 
Q 947 1169 1205 825 
Q 1463 481 1925 481 
Q 2391 481 2648 825 
Q 2906 1169 2906 1791 
z
M 3481 434 
Q 3481 -459 3084 -895 
Q 2688 -1331 1869 -1331 
Q 1566 -1331 1297 -1286 
Q 1028 -1241 775 -1147 
L 775 -588 
Q 1028 -725 1275 -790 
Q 1522 -856 1778 -856 
Q 2344 -856 2625 -561 
Q 2906 -266 2906 331 
L 2906 616 
Q 2728 306 2450 153 
Q 2172 0 1784 0 
Q 1141 0 747 490 
Q 353 981 353 1791 
Q 353 2603 747 3093 
Q 1141 3584 1784 3584 
Q 2172 3584 2450 3431 
Q 2728 3278 2906 2969 
L 2906 3500 
L 3481 3500 
L 3481 434 
z
" transform="scale(0.015625)"/>
       <path id="DejaVuSans-6d" d="M 3328 2828 
Q 3544 3216 3844 3400 
Q 4144 3584 4550 3584 
Q 5097 3584 5394 3201 
Q 5691 2819 5691 2113 
L 5691 0 
L 5113 0 
L 5113 2094 
Q 5113 2597 4934 2840 
Q 4756 3084 4391 3084 
Q 3944 3084 3684 2787 
Q 3425 2491 3425 1978 
L 3425 0 
L 2847 0 
L 2847 2094 
Q 2847 2600 2669 2842 
Q 2491 3084 2119 3084 
Q 1678 3084 1418 2786 
Q 1159 2488 1159 1978 
L 1159 0 
L 581 0 
L 581 3500 
L 1159 3500 
L 1159 2956 
Q 1356 3278 1631 3431 
Q 1906 3584 2284 3584 
Q 2666 3584 2933 3390 
Q 3200 3197 3328 2828 
z
" transform="scale(0.015625)"/>
       <path id="DejaVuSans-61" d="M 2194 1759 
Q 1497 1759 1228 1600 
Q 959 1441 959 1056 
Q 959 750 1161 570 
Q 1363 391 1709 391 
Q 2188 391 2477 730 
Q 2766 1069 2766 1631 
L 2766 1759 
L 2194 1759 
z
M 3341 1997 
L 3341 0 
L 2766 0 
L 2766 531 
Q 2569 213 2275 61 
Q 1981 -91 1556 -91 
Q 1019 -91 701 211 
Q 384 513 384 1019 
Q 384 1609 779 1909 
Q 1175 2209 1959 2209 
L 2766 2209 
L 2766 2266 
Q 2766 2663 2505 2880 
Q 2244 3097 1772 3097 
Q 1472 3097 1187 3025 
Q 903 2953 641 2809 
L 641 3341 
Q 956 3463 1253 3523 
Q 1550 3584 1831 3584 
Q 2591 3584 2966 3190 
Q 3341 2797 3341 1997 
z
" transform="scale(0.015625)"/>
       <path id="DejaVuSans-20" transform="scale(0.015625)"/>
       <path id="DejaVuSans-3d" d="M 678 2906 
L 4684 2906 
L 4684 2381 
L 678 2381 
L 678 2906 
z
M 678 1631 
L 4684 1631 
L 4684 1100 
L 678 1100 
L 678 1631 
z
" transform="scale(0.015625)"/>
       <path id="DejaVuSans-35" d="M 691 4666 
L 3169 4666 
L 3169 4134 
L 1269 4134 
L 1269 2991 
Q 1406 3038 1543 3061 
Q 1681 3084 1819 3084 
Q 2600 3084 3056 2656 
Q 3513 2228 3513 1497 
Q 3513 744 3044 326 
Q 2575 -91 1722 -91 
Q 1428 -91 1123 -41 
Q 819 9 494 109 
L 494 744 
Q 775 591 1075 516 
Q 1375 441 1709 441 
Q 2250 441 2565 725 
Q 2881 1009 2881 1497 
Q 2881 1984 2565 2268 
Q 2250 2553 1709 2553 
Q 1456 2553 1204 2497 
Q 953 2441 691 2322 
L 691 4666 
z
" transform="scale(0.015625)"/>
      </defs>
      <use xlink:href="#DejaVuSans-73"/>
      <use xlink:href="#DejaVuSans-69" x="52.099609"/>
      <use xlink:href="#DejaVuSans-67" x="79.882812"/>
      <use xlink:href="#DejaVuSans-6d" x="143.359375"/>
      <use xlink:href="#DejaVuSans-61" x="240.771484"/>
      <use xlink:href="#DejaVuSans-20" x="302.050781"/>
      <use xlink:href="#DejaVuSans-3d" x="333.837891"/>
      <use xlink:href="#DejaVuSans-20" x="417.626953"/>
      <use xlink:href="#DejaVuSans-30" x="449.414062"/>
      <use xlink:href="#DejaVuSans-2e" x="513.037109"/>
      <use xlink:href="#DejaVuSans-35" x="544.824219"/>
     </g>
    </g>
    <g id="line2d_16">
     <path d="M 316.87625 69.248563 
L 326.87625 69.248563 
L 336.87625 69.248563 
" style="fill: none; stroke: #ff7f0e; stroke-width: 1.5; stroke-linecap: square"/>
    </g>
    <g id="text_13">
     <!-- sigma = 1 -->
     <g transform="translate(344.87625 72.748563) scale(0.1 -0.1)">
      <use xlink:href="#DejaVuSans-73"/>
      <use xlink:href="#DejaVuSans-69" x="52.099609"/>
      <use xlink:href="#DejaVuSans-67" x="79.882812"/>
      <use xlink:href="#DejaVuSans-6d" x="143.359375"/>
      <use xlink:href="#DejaVuSans-61" x="240.771484"/>
      <use xlink:href="#DejaVuSans-20" x="302.050781"/>
      <use xlink:href="#DejaVuSans-3d" x="333.837891"/>
      <use xlink:href="#DejaVuSans-20" x="417.626953"/>
      <use xlink:href="#DejaVuSans-31" x="449.414062"/>
     </g>
    </g>
    <g id="line2d_17">
     <path d="M 316.87625 83.926688 
L 326.87625 83.926688 
L 336.87625 83.926688 
" style="fill: none; stroke: #2ca02c; stroke-width: 1.5; stroke-linecap: square"/>
    </g>
    <g id="text_14">
     <!-- sigma = 2 -->
     <g transform="translate(344.87625 87.426688) scale(0.1 -0.1)">
      <use xlink:href="#DejaVuSans-73"/>
      <use xlink:href="#DejaVuSans-69" x="52.099609"/>
      <use xlink:href="#DejaVuSans-67" x="79.882812"/>
      <use xlink:href="#DejaVuSans-6d" x="143.359375"/>
      <use xlink:href="#DejaVuSans-61" x="240.771484"/>
      <use xlink:href="#DejaVuSans-20" x="302.050781"/>
      <use xlink:href="#DejaVuSans-3d" x="333.837891"/>
      <use xlink:href="#DejaVuSans-20" x="417.626953"/>
      <use xlink:href="#DejaVuSans-32" x="449.414062"/>
     </g>
    </g>
   </g>
  </g>
 </g>
 <defs>
  <clipPath id="pe0076d4ea3">
   <rect x="57.6" y="41.472" width="357.12" height="266.112"/>
  </clipPath>
 </defs>
</svg>
