<?xml version="1.0" encoding="utf-8" standalone="no"?>
<!DOCTYPE svg PUBLIC "-//W3C//DTD SVG 1.1//EN"
  "http://www.w3.org/Graphics/SVG/1.1/DTD/svg11.dtd">
<svg xmlns:xlink="http://www.w3.org/1999/xlink" width="380.023125pt" height="282.790125pt" viewBox="0 0 380.023125 282.790125" xmlns="http://www.w3.org/2000/svg" version="1.1">
 <metadata>
  <rdf:RDF xmlns:dc="http://purl.org/dc/elements/1.1/" xmlns:cc="http://creativecommons.org/ns#" xmlns:rdf="http://www.w3.org/1999/02/22-rdf-syntax-ns#">
   <cc:Work>
    <dc:type rdf:resource="http://purl.org/dc/dcmitype/StillImage"/>
    <dc:date>2023-07-18T17:23:25.481162</dc:date>
    <dc:format>image/svg+xml</dc:format>
    <dc:creator>
     <cc:Agent>
      <dc:title>Matplotlib v3.7.1, https://matplotlib.org/</dc:title>
     </cc:Agent>
    </dc:creator>
   </cc:Work>
  </rdf:RDF>
 </metadata>
 <defs>
  <style type="text/css">*{stroke-linejoin: round; stroke-linecap: butt}</style>
 </defs>
 <g id="figure_1">
  <g id="patch_1">
   <path d="M 0 282.790125 
L 380.023125 282.790125 
L 380.023125 0 
L 0 0 
z
" style="fill: #ffffff"/>
  </g>
  <g id="axes_1">
   <g id="patch_2">
    <path d="M 22.903125 266.112 
L 380.023125 266.112 
L 380.023125 0 
L 22.903125 0 
z
" style="fill: #ffffff"/>
   </g>
   <g id="matplotlib.axis_1">
    <g id="xtick_1">
     <g id="line2d_1">
      <defs>
       <path id="m91f777c16a" d="M 0 0 
L 0 3.5 
" style="stroke: #000000; stroke-width: 0.8"/>
      </defs>
      <g>
       <use xlink:href="#m91f777c16a" x="71.601307" y="266.112" style="stroke: #000000; stroke-width: 0.8"/>
      </g>
     </g>
     <g id="text_1">
      <!-- −4 -->
      <g transform="translate(64.230213 280.710438) scale(0.1 -0.1)">
       <defs>
        <path id="DejaVuSans-2212" d="M 678 2272 
L 4684 2272 
L 4684 1741 
L 678 1741 
L 678 2272 
z
" transform="scale(0.015625)"/>
        <path id="DejaVuSans-34" d="M 2419 4116 
L 825 1625 
L 2419 1625 
L 2419 4116 
z
M 2253 4666 
L 3047 4666 
L 3047 1625 
L 3713 1625 
L 3713 1100 
L 3047 1100 
L 3047 0 
L 2419 0 
L 2419 1100 
L 313 1100 
L 313 1709 
L 2253 4666 
z
" transform="scale(0.015625)"/>
       </defs>
       <use xlink:href="#DejaVuSans-2212"/>
       <use xlink:href="#DejaVuSans-34" x="83.789062"/>
      </g>
     </g>
    </g>
    <g id="xtick_2">
     <g id="line2d_2">
      <g>
       <use xlink:href="#m91f777c16a" x="136.532216" y="266.112" style="stroke: #000000; stroke-width: 0.8"/>
      </g>
     </g>
     <g id="text_2">
      <!-- −2 -->
      <g transform="translate(129.161122 280.710438) scale(0.1 -0.1)">
       <defs>
        <path id="DejaVuSans-32" d="M 1228 531 
L 3431 531 
L 3431 0 
L 469 0 
L 469 531 
Q 828 903 1448 1529 
Q 2069 2156 2228 2338 
Q 2531 2678 2651 2914 
Q 2772 3150 2772 3378 
Q 2772 3750 2511 3984 
Q 2250 4219 1831 4219 
Q 1534 4219 1204 4116 
Q 875 4013 500 3803 
L 500 4441 
Q 881 4594 1212 4672 
Q 1544 4750 1819 4750 
Q 2544 4750 2975 4387 
Q 3406 4025 3406 3419 
Q 3406 3131 3298 2873 
Q 3191 2616 2906 2266 
Q 2828 2175 2409 1742 
Q 1991 1309 1228 531 
z
" transform="scale(0.015625)"/>
       </defs>
       <use xlink:href="#DejaVuSans-2212"/>
       <use xlink:href="#DejaVuSans-32" x="83.789062"/>
      </g>
     </g>
    </g>
    <g id="xtick_3">
     <g id="line2d_3">
      <g>
       <use xlink:href="#m91f777c16a" x="201.463125" y="266.112" style="stroke: #000000; stroke-width: 0.8"/>
      </g>
     </g>
     <g id="text_3">
      <!-- 0 -->
      <g transform="translate(198.281875 280.710438) scale(0.1 -0.1)">
       <defs>
        <path id="DejaVuSans-30" d="M 2034 4250 
Q 1547 4250 1301 3770 
Q 1056 3291 1056 2328 
Q 1056 1369 1301 889 
Q 1547 409 2034 409 
Q 2525 409 2770 889 
Q 3016 1369 3016 2328 
Q 3016 3291 2770 3770 
Q 2525 4250 2034 4250 
z
M 2034 4750 
Q 2819 4750 3233 4129 
Q 3647 3509 3647 2328 
Q 3647 1150 3233 529 
Q 2819 -91 2034 -91 
Q 1250 -91 836 529 
Q 422 1150 422 2328 
Q 422 3509 836 4129 
Q 1250 4750 2034 4750 
z
" transform="scale(0.015625)"/>
       </defs>
       <use xlink:href="#DejaVuSans-30"/>
      </g>
     </g>
    </g>
    <g id="xtick_4">
     <g id="line2d_4">
      <g>
       <use xlink:href="#m91f777c16a" x="266.394034" y="266.112" style="stroke: #000000; stroke-width: 0.8"/>
      </g>
     </g>
     <g id="text_4">
      <!-- 2 -->
      <g transform="translate(263.212784 280.710438) scale(0.1 -0.1)">
       <use xlink:href="#DejaVuSans-32"/>
      </g>
     </g>
    </g>
    <g id="xtick_5">
     <g id="line2d_5">
      <g>
       <use xlink:href="#m91f777c16a" x="331.324943" y="266.112" style="stroke: #000000; stroke-width: 0.8"/>
      </g>
     </g>
     <g id="text_5">
      <!-- 4 -->
      <g transform="translate(328.143693 280.710438) scale(0.1 -0.1)">
       <use xlink:href="#DejaVuSans-34"/>
      </g>
     </g>
    </g>
   </g>
   <g id="matplotlib.axis_2">
    <g id="ytick_1">
     <g id="line2d_6">
      <defs>
       <path id="m37afa3cd1e" d="M 0 0 
L -3.5 0 
" style="stroke: #000000; stroke-width: 0.8"/>
      </defs>
      <g>
       <use xlink:href="#m37afa3cd1e" x="22.903125" y="254.016" style="stroke: #000000; stroke-width: 0.8"/>
      </g>
     </g>
     <g id="text_6">
      <!-- 0.0 -->
      <g transform="translate(0 257.815219) scale(0.1 -0.1)">
       <defs>
        <path id="DejaVuSans-2e" d="M 684 794 
L 1344 794 
L 1344 0 
L 684 0 
L 684 794 
z
" transform="scale(0.015625)"/>
       </defs>
       <use xlink:href="#DejaVuSans-30"/>
       <use xlink:href="#DejaVuSans-2e" x="63.623047"/>
       <use xlink:href="#DejaVuSans-30" x="95.410156"/>
      </g>
     </g>
    </g>
    <g id="ytick_2">
     <g id="line2d_7">
      <g>
       <use xlink:href="#m37afa3cd1e" x="22.903125" y="205.631848" style="stroke: #000000; stroke-width: 0.8"/>
      </g>
     </g>
     <g id="text_7">
      <!-- 0.2 -->
      <g transform="translate(0 209.431067) scale(0.1 -0.1)">
       <use xlink:href="#DejaVuSans-30"/>
       <use xlink:href="#DejaVuSans-2e" x="63.623047"/>
       <use xlink:href="#DejaVuSans-32" x="95.410156"/>
      </g>
     </g>
    </g>
    <g id="ytick_3">
     <g id="line2d_8">
      <g>
       <use xlink:href="#m37afa3cd1e" x="22.903125" y="157.247697" style="stroke: #000000; stroke-width: 0.8"/>
      </g>
     </g>
     <g id="text_8">
      <!-- 0.4 -->
      <g transform="translate(0 161.046916) scale(0.1 -0.1)">
       <use xlink:href="#DejaVuSans-30"/>
       <use xlink:href="#DejaVuSans-2e" x="63.623047"/>
       <use xlink:href="#DejaVuSans-34" x="95.410156"/>
      </g>
     </g>
    </g>
    <g id="ytick_4">
     <g id="line2d_9">
      <g>
       <use xlink:href="#m37afa3cd1e" x="22.903125" y="108.863545" style="stroke: #000000; stroke-width: 0.8"/>
      </g>
     </g>
     <g id="text_9">
      <!-- 0.6 -->
      <g transform="translate(0 112.662764) scale(0.1 -0.1)">
       <defs>
        <path id="DejaVuSans-36" d="M 2113 2584 
Q 1688 2584 1439 2293 
Q 1191 2003 1191 1497 
Q 1191 994 1439 701 
Q 1688 409 2113 409 
Q 2538 409 2786 701 
Q 3034 994 3034 1497 
Q 3034 2003 2786 2293 
Q 2538 2584 2113 2584 
z
M 3366 4563 
L 3366 3988 
Q 3128 4100 2886 4159 
Q 2644 4219 2406 4219 
Q 1781 4219 1451 3797 
Q 1122 3375 1075 2522 
Q 1259 2794 1537 2939 
Q 1816 3084 2150 3084 
Q 2853 3084 3261 2657 
Q 3669 2231 3669 1497 
Q 3669 778 3244 343 
Q 2819 -91 2113 -91 
Q 1303 -91 875 529 
Q 447 1150 447 2328 
Q 447 3434 972 4092 
Q 1497 4750 2381 4750 
Q 2619 4750 2861 4703 
Q 3103 4656 3366 4563 
z
" transform="scale(0.015625)"/>
       </defs>
       <use xlink:href="#DejaVuSans-30"/>
       <use xlink:href="#DejaVuSans-2e" x="63.623047"/>
       <use xlink:href="#DejaVuSans-36" x="95.410156"/>
      </g>
     </g>
    </g>
    <g id="ytick_5">
     <g id="line2d_10">
      <g>
       <use xlink:href="#m37afa3cd1e" x="22.903125" y="60.479394" style="stroke: #000000; stroke-width: 0.8"/>
      </g>
     </g>
     <g id="text_10">
      <!-- 0.8 -->
      <g transform="translate(0 64.278613) scale(0.1 -0.1)">
       <defs>
        <path id="DejaVuSans-38" d="M 2034 2216 
Q 1584 2216 1326 1975 
Q 1069 1734 1069 1313 
Q 1069 891 1326 650 
Q 1584 409 2034 409 
Q 2484 409 2743 651 
Q 3003 894 3003 1313 
Q 3003 1734 2745 1975 
Q 2488 2216 2034 2216 
z
M 1403 2484 
Q 997 2584 770 2862 
Q 544 3141 544 3541 
Q 544 4100 942 4425 
Q 1341 4750 2034 4750 
Q 2731 4750 3128 4425 
Q 3525 4100 3525 3541 
Q 3525 3141 3298 2862 
Q 3072 2584 2669 2484 
Q 3125 2378 3379 2068 
Q 3634 1759 3634 1313 
Q 3634 634 3220 271 
Q 2806 -91 2034 -91 
Q 1263 -91 848 271 
Q 434 634 434 1313 
Q 434 1759 690 2068 
Q 947 2378 1403 2484 
z
M 1172 3481 
Q 1172 3119 1398 2916 
Q 1625 2713 2034 2713 
Q 2441 2713 2670 2916 
Q 2900 3119 2900 3481 
Q 2900 3844 2670 4047 
Q 2441 4250 2034 4250 
Q 1625 4250 1398 4047 
Q 1172 3844 1172 3481 
z
" transform="scale(0.015625)"/>
       </defs>
       <use xlink:href="#DejaVuSans-30"/>
       <use xlink:href="#DejaVuSans-2e" x="63.623047"/>
       <use xlink:href="#DejaVuSans-38" x="95.410156"/>
      </g>
     </g>
    </g>
    <g id="ytick_6">
     <g id="line2d_11">
      <g>
       <use xlink:href="#m37afa3cd1e" x="22.903125" y="12.095242" style="stroke: #000000; stroke-width: 0.8"/>
      </g>
     </g>
     <g id="text_11">
      <!-- 1.0 -->
      <g transform="translate(0 15.894461) scale(0.1 -0.1)">
       <defs>
        <path id="DejaVuSans-31" d="M 794 531 
L 1825 531 
L 1825 4091 
L 703 3866 
L 703 4441 
L 1819 4666 
L 2450 4666 
L 2450 531 
L 3481 531 
L 3481 0 
L 794 0 
L 794 531 
z
" transform="scale(0.015625)"/>
       </defs>
       <use xlink:href="#DejaVuSans-31"/>
       <use xlink:href="#DejaVuSans-2e" x="63.623047"/>
       <use xlink:href="#DejaVuSans-30" x="95.410156"/>
      </g>
     </g>
    </g>
   </g>
   <g id="line2d_12">
    <path d="M 39.135852 254.016 
L 137.604648 253.910528 
L 142.804321 253.662719 
L 146.054116 253.302152 
L 148.653952 252.798522 
L 150.928809 252.114062 
L 152.878686 251.271479 
L 154.503584 250.331276 
L 156.128481 249.118306 
L 157.753379 247.570944 
L 159.053297 246.045574 
L 160.353215 244.222198 
L 161.653133 242.058619 
L 162.953051 239.510398 
L 164.252969 236.531614 
L 165.552887 233.075841 
L 167.177785 228.015873 
L 168.802683 222.055075 
L 170.42758 215.119408 
L 172.052478 207.150622 
L 173.677376 198.112235 
L 175.627253 185.844382 
L 177.57713 172.075278 
L 179.851987 154.293765 
L 182.451823 132.166184 
L 191.22627 55.71963 
L 193.176147 41.652435 
L 194.801045 31.635057 
L 196.100963 24.940611 
L 197.400881 19.553038 
L 198.37582 16.431329 
L 199.350758 14.13492 
L 200.000717 13.074995 
L 200.650676 12.398059 
L 201.300635 12.107362 
L 201.950594 12.2043 
L 202.600553 12.688407 
L 203.250512 13.557358 
L 203.900471 14.80699 
L 204.87541 17.381665 
L 205.850349 20.77151 
L 206.825287 24.940611 
L 208.125205 31.635057 
L 209.425123 39.51385 
L 211.050021 50.811756 
L 212.999898 66.088666 
L 215.599734 88.444655 
L 223.399243 156.936038 
L 225.6741 174.469895 
L 227.623977 187.995571 
L 229.573854 200.006345 
L 231.198752 208.829142 
L 232.823649 216.587602 
L 234.448547 223.323045 
L 236.073444 229.09735 
L 237.698342 233.987027 
L 239.32324 238.077729 
L 240.948137 241.4594 
L 242.248055 243.7149 
L 243.872953 246.045574 
L 245.497851 247.910408 
L 247.122748 249.385558 
L 248.747646 250.539314 
L 250.372544 251.431618 
L 252.322421 252.229339 
L 254.597277 252.875518 
L 257.197114 253.349438 
L 260.446909 253.68744 
L 264.996622 253.901908 
L 272.796131 254.000497 
L 303.994165 254.015999 
L 363.790398 254.016 
L 363.790398 254.016 
" clip-path="url(#p097c2ac9bc)" style="fill: none; stroke: #1f77b4; stroke-width: 1.5; stroke-linecap: square"/>
   </g>
   <g id="line2d_13">
    <path d="M 39.135852 254.015098 
L 74.55862 253.899653 
L 84.308006 253.656276 
L 90.807597 253.289861 
L 96.007269 252.778551 
L 100.232003 252.14349 
L 103.806778 251.392382 
L 107.056573 250.4883 
L 109.981389 249.450347 
L 112.581225 248.312921 
L 115.181061 246.937669 
L 117.780897 245.286945 
L 120.055754 243.584675 
L 122.330611 241.611496 
L 124.605467 239.33732 
L 126.880324 236.731281 
L 129.155181 233.762256 
L 131.430037 230.399474 
L 133.704894 226.613234 
L 135.979751 222.375707 
L 138.254607 217.661826 
L 140.529464 212.450237 
L 142.804321 206.7243 
L 145.404157 199.536873 
L 148.003993 191.65827 
L 150.603829 183.096543 
L 153.528645 172.677551 
L 156.77844 160.193541 
L 160.353215 145.500275 
L 164.577949 127.140338 
L 178.552068 65.421359 
L 181.476884 53.855623 
L 184.07672 44.413879 
L 186.351577 36.932695 
L 188.301454 31.180584 
L 190.251331 26.099685 
L 191.876229 22.416273 
L 193.501127 19.262129 
L 194.801045 17.135538 
L 196.100963 15.372583 
L 197.400881 13.981641 
L 198.700799 12.969349 
L 199.675738 12.461603 
L 200.650676 12.170982 
L 201.625615 12.098273 
L 202.600553 12.24367 
L 203.575492 12.606782 
L 204.55043 13.186627 
L 205.525369 13.981641 
L 206.825287 15.372583 
L 208.125205 17.135538 
L 209.425123 19.262129 
L 211.050021 22.416273 
L 212.674919 26.099685 
L 214.624796 31.180584 
L 216.574673 36.932695 
L 218.84953 44.413879 
L 221.449366 53.855623 
L 224.374182 65.421359 
L 227.948956 80.575864 
L 233.148629 103.759224 
L 240.948137 138.545015 
L 244.847892 154.957278 
L 248.422666 169.028298 
L 251.347482 179.713993 
L 254.272298 189.581247 
L 256.872134 197.631949 
L 259.47197 204.99216 
L 262.071806 211.664058 
L 264.346663 216.948229 
L 266.62152 221.732003 
L 268.896376 226.036121 
L 271.171233 229.885182 
L 273.44609 233.306674 
L 275.720946 236.330083 
L 277.995803 238.986073 
L 280.27066 241.305756 
L 282.545516 243.320069 
L 284.820373 245.059239 
L 287.420209 246.7472 
L 290.020046 248.154761 
L 292.619882 249.319968 
L 295.544697 250.384288 
L 298.794493 251.312319 
L 302.369268 252.084219 
L 306.269022 252.69567 
L 310.818735 253.184349 
L 316.668367 253.570023 
L 324.142896 253.824137 
L 335.842159 253.969932 
L 362.815459 254.014953 
L 363.790398 254.015098 
L 363.790398 254.015098 
" clip-path="url(#p097c2ac9bc)" style="fill: none; stroke: #ff7f0e; stroke-width: 1.5; stroke-linecap: square"/>
   </g>
   <g id="line2d_14">
    <path d="M 39.135852 243.386744 
L 43.360586 241.535641 
L 47.26034 239.596306 
L 51.160095 237.415606 
L 55.059849 234.97393 
L 58.959603 232.251769 
L 62.534378 229.493739 
L 66.109153 226.469822 
L 69.683928 223.166666 
L 73.258702 219.571977 
L 76.833477 215.67481 
L 80.408252 211.465867 
L 84.308006 206.510133 
L 88.207761 201.168192 
L 92.107515 195.437248 
L 96.007269 189.318624 
L 100.232003 182.259557 
L 104.456737 174.766493 
L 109.00645 166.236275 
L 113.881143 156.607486 
L 119.080815 145.843938 
L 125.255426 132.523166 
L 133.379915 114.401759 
L 148.653952 80.221955 
L 154.503584 67.767033 
L 159.053297 58.565783 
L 163.278031 50.511845 
L 167.177785 43.575401 
L 170.75256 37.696062 
L 174.002355 32.791433 
L 176.927171 28.765216 
L 179.851987 25.130615 
L 182.451823 22.245788 
L 185.051659 19.700559 
L 187.326516 17.761474 
L 189.601372 16.098555 
L 191.876229 14.717839 
L 194.151086 13.624361 
L 196.100963 12.918773 
L 198.05084 12.429077 
L 200.000717 12.156594 
L 201.950594 12.10206 
L 203.900471 12.265624 
L 205.850349 12.646842 
L 207.800226 13.244686 
L 209.750103 14.057542 
L 211.69998 15.08322 
L 213.974837 16.545124 
L 216.249693 18.287607 
L 218.52455 20.30435 
L 221.124386 22.935657 
L 223.724222 25.903343 
L 226.324059 29.193641 
L 229.248874 33.261976 
L 232.17369 37.696062 
L 235.423485 43.021159 
L 238.99826 49.320585 
L 242.898014 56.6618 
L 247.122748 65.088593 
L 251.997441 75.308269 
L 258.172052 88.805619 
L 268.246417 111.468574 
L 278.320783 133.948187 
L 284.820373 147.897136 
L 290.345025 159.221704 
L 295.219718 168.720375 
L 299.769431 177.117143 
L 303.994165 184.478592 
L 308.218899 191.400977 
L 312.118653 197.390793 
L 316.018408 202.992004 
L 319.918162 208.204708 
L 323.817916 213.032974 
L 327.71767 217.484382 
L 331.292445 221.2428 
L 334.86722 224.70353 
L 338.441995 227.878165 
L 342.01677 230.779515 
L 345.916524 233.649118 
L 349.816278 236.228616 
L 353.716032 238.537352 
L 357.615787 240.594922 
L 361.840521 242.563198 
L 363.790398 243.386744 
L 363.790398 243.386744 
" clip-path="url(#p097c2ac9bc)" style="fill: none; stroke: #2ca02c; stroke-width: 1.5; stroke-linecap: square"/>
   </g>
   <g id="patch_3">
    <path d="M 22.903125 266.112 
L 22.903125 0 
" style="fill: none; stroke: #000000; stroke-width: 0.8; stroke-linejoin: miter; stroke-linecap: square"/>
   </g>
   <g id="patch_4">
    <path d="M 380.023125 266.112 
L 380.023125 0 
" style="fill: none; stroke: #000000; stroke-width: 0.8; stroke-linejoin: miter; stroke-linecap: square"/>
   </g>
   <g id="patch_5">
    <path d="M 22.903125 266.112 
L 380.023125 266.112 
" style="fill: none; stroke: #000000; stroke-width: 0.8; stroke-linejoin: miter; stroke-linecap: square"/>
   </g>
   <g id="patch_6">
    <path d="M 22.903125 0 
L 380.023125 0 
" style="fill: none; stroke: #000000; stroke-width: 0.8; stroke-linejoin: miter; stroke-linecap: square"/>
   </g>
   <g id="legend_1">
    <g id="patch_7">
     <path d="M 280.179375 52.034375 
L 373.023125 52.034375 
Q 375.023125 52.034375 375.023125 50.034375 
L 375.023125 7 
Q 375.023125 5 373.023125 5 
L 280.179375 5 
Q 278.179375 5 278.179375 7 
L 278.179375 50.034375 
Q 278.179375 52.034375 280.179375 52.034375 
z
" style="fill: #ffffff; opacity: 0.8; stroke: #cccccc; stroke-linejoin: miter"/>
    </g>
    <g id="line2d_15">
     <path d="M 282.179375 13.098438 
L 292.179375 13.098438 
L 302.179375 13.098438 
" style="fill: none; stroke: #1f77b4; stroke-width: 1.5; stroke-linecap: square"/>
    </g>
    <g id="text_12">
     <!-- sigma = 0.5 -->
     <g transform="translate(310.179375 16.598438) scale(0.1 -0.1)">
      <defs>
       <path id="DejaVuSans-73" d="M 2834 3397 
L 2834 2853 
Q 2591 2978 2328 3040 
Q 2066 3103 1784 3103 
Q 1356 3103 1142 2972 
Q 928 2841 928 2578 
Q 928 2378 1081 2264 
Q 1234 2150 1697 2047 
L 1894 2003 
Q 2506 1872 2764 1633 
Q 3022 1394 3022 966 
Q 3022 478 2636 193 
Q 2250 -91 1575 -91 
Q 1294 -91 989 -36 
Q 684 19 347 128 
L 347 722 
Q 666 556 975 473 
Q 1284 391 1588 391 
Q 1994 391 2212 530 
Q 2431 669 2431 922 
Q 2431 1156 2273 1281 
Q 2116 1406 1581 1522 
L 1381 1569 
Q 847 1681 609 1914 
Q 372 2147 372 2553 
Q 372 3047 722 3315 
Q 1072 3584 1716 3584 
Q 2034 3584 2315 3537 
Q 2597 3491 2834 3397 
z
" transform="scale(0.015625)"/>
       <path id="DejaVuSans-69" d="M 603 3500 
L 1178 3500 
L 1178 0 
L 603 0 
L 603 3500 
z
M 603 4863 
L 1178 4863 
L 1178 4134 
L 603 4134 
L 603 4863 
z
" transform="scale(0.015625)"/>
       <path id="DejaVuSans-67" d="M 2906 1791 
Q 2906 2416 2648 2759 
Q 2391 3103 1925 3103 
Q 1463 3103 1205 2759 
Q 947 2416 947 1791 
Q 947 1169 1205 825 
Q 1463 481 1925 481 
Q 2391 481 2648 825 
Q 2906 1169 2906 1791 
z
M 3481 434 
Q 3481 -459 3084 -895 
Q 2688 -1331 1869 -1331 
Q 1566 -1331 1297 -1286 
Q 1028 -1241 775 -1147 
L 775 -588 
Q 1028 -725 1275 -790 
Q 1522 -856 1778 -856 
Q 2344 -856 2625 -561 
Q 2906 -266 2906 331 
L 2906 616 
Q 2728 306 2450 153 
Q 2172 0 1784 0 
Q 1141 0 747 490 
Q 353 981 353 1791 
Q 353 2603 747 3093 
Q 1141 3584 1784 3584 
Q 2172 3584 2450 3431 
Q 2728 3278 2906 2969 
L 2906 3500 
L 3481 3500 
L 3481 434 
z
" transform="scale(0.015625)"/>
       <path id="DejaVuSans-6d" d="M 3328 2828 
Q 3544 3216 3844 3400 
Q 4144 3584 4550 3584 
Q 5097 3584 5394 3201 
Q 5691 2819 5691 2113 
L 5691 0 
L 5113 0 
L 5113 2094 
Q 5113 2597 4934 2840 
Q 4756 3084 4391 3084 
Q 3944 3084 3684 2787 
Q 3425 2491 3425 1978 
L 3425 0 
L 2847 0 
L 2847 2094 
Q 2847 2600 2669 2842 
Q 2491 3084 2119 3084 
Q 1678 3084 1418 2786 
Q 1159 2488 1159 1978 
L 1159 0 
L 581 0 
L 581 3500 
L 1159 3500 
L 1159 2956 
Q 1356 3278 1631 3431 
Q 1906 3584 2284 3584 
Q 2666 3584 2933 3390 
Q 3200 3197 3328 2828 
z
" transform="scale(0.015625)"/>
       <path id="DejaVuSans-61" d="M 2194 1759 
Q 1497 1759 1228 1600 
Q 959 1441 959 1056 
Q 959 750 1161 570 
Q 1363 391 1709 391 
Q 2188 391 2477 730 
Q 2766 1069 2766 1631 
L 2766 1759 
L 2194 1759 
z
M 3341 1997 
L 3341 0 
L 2766 0 
L 2766 531 
Q 2569 213 2275 61 
Q 1981 -91 1556 -91 
Q 1019 -91 701 211 
Q 384 513 384 1019 
Q 384 1609 779 1909 
Q 1175 2209 1959 2209 
L 2766 2209 
L 2766 2266 
Q 2766 2663 2505 2880 
Q 2244 3097 1772 3097 
Q 1472 3097 1187 3025 
Q 903 2953 641 2809 
L 641 3341 
Q 956 3463 1253 3523 
Q 1550 3584 1831 3584 
Q 2591 3584 2966 3190 
Q 3341 2797 3341 1997 
z
" transform="scale(0.015625)"/>
       <path id="DejaVuSans-20" transform="scale(0.015625)"/>
       <path id="DejaVuSans-3d" d="M 678 2906 
L 4684 2906 
L 4684 2381 
L 678 2381 
L 678 2906 
z
M 678 1631 
L 4684 1631 
L 4684 1100 
L 678 1100 
L 678 1631 
z
" transform="scale(0.015625)"/>
       <path id="DejaVuSans-35" d="M 691 4666 
L 3169 4666 
L 3169 4134 
L 1269 4134 
L 1269 2991 
Q 1406 3038 1543 3061 
Q 1681 3084 1819 3084 
Q 2600 3084 3056 2656 
Q 3513 2228 3513 1497 
Q 3513 744 3044 326 
Q 2575 -91 1722 -91 
Q 1428 -91 1123 -41 
Q 819 9 494 109 
L 494 744 
Q 775 591 1075 516 
Q 1375 441 1709 441 
Q 2250 441 2565 725 
Q 2881 1009 2881 1497 
Q 2881 1984 2565 2268 
Q 2250 2553 1709 2553 
Q 1456 2553 1204 2497 
Q 953 2441 691 2322 
L 691 4666 
z
" transform="scale(0.015625)"/>
      </defs>
      <use xlink:href="#DejaVuSans-73"/>
      <use xlink:href="#DejaVuSans-69" x="52.099609"/>
      <use xlink:href="#DejaVuSans-67" x="79.882812"/>
      <use xlink:href="#DejaVuSans-6d" x="143.359375"/>
      <use xlink:href="#DejaVuSans-61" x="240.771484"/>
      <use xlink:href="#DejaVuSans-20" x="302.050781"/>
      <use xlink:href="#DejaVuSans-3d" x="333.837891"/>
      <use xlink:href="#DejaVuSans-20" x="417.626953"/>
      <use xlink:href="#DejaVuSans-30" x="449.414062"/>
      <use xlink:href="#DejaVuSans-2e" x="513.037109"/>
      <use xlink:href="#DejaVuSans-35" x="544.824219"/>
     </g>
    </g>
    <g id="line2d_16">
     <path d="M 282.179375 27.776563 
L 292.179375 27.776563 
L 302.179375 27.776563 
" style="fill: none; stroke: #ff7f0e; stroke-width: 1.5; stroke-linecap: square"/>
    </g>
    <g id="text_13">
     <!-- sigma = 1 -->
     <g transform="translate(310.179375 31.276563) scale(0.1 -0.1)">
      <use xlink:href="#DejaVuSans-73"/>
      <use xlink:href="#DejaVuSans-69" x="52.099609"/>
      <use xlink:href="#DejaVuSans-67" x="79.882812"/>
      <use xlink:href="#DejaVuSans-6d" x="143.359375"/>
      <use xlink:href="#DejaVuSans-61" x="240.771484"/>
      <use xlink:href="#DejaVuSans-20" x="302.050781"/>
      <use xlink:href="#DejaVuSans-3d" x="333.837891"/>
      <use xlink:href="#DejaVuSans-20" x="417.626953"/>
      <use xlink:href="#DejaVuSans-31" x="449.414062"/>
     </g>
    </g>
    <g id="line2d_17">
     <path d="M 282.179375 42.454688 
L 292.179375 42.454688 
L 302.179375 42.454688 
" style="fill: none; stroke: #2ca02c; stroke-width: 1.5; stroke-linecap: square"/>
    </g>
    <g id="text_14">
     <!-- sigma = 2 -->
     <g transform="translate(310.179375 45.954688) scale(0.1 -0.1)">
      <use xlink:href="#DejaVuSans-73"/>
      <use xlink:href="#DejaVuSans-69" x="52.099609"/>
      <use xlink:href="#DejaVuSans-67" x="79.882812"/>
      <use xlink:href="#DejaVuSans-6d" x="143.359375"/>
      <use xlink:href="#DejaVuSans-61" x="240.771484"/>
      <use xlink:href="#DejaVuSans-20" x="302.050781"/>
      <use xlink:href="#DejaVuSans-3d" x="333.837891"/>
      <use xlink:href="#DejaVuSans-20" x="417.626953"/>
      <use xlink:href="#DejaVuSans-32" x="449.414062"/>
     </g>
    </g>
   </g>
  </g>
 </g>
 <defs>
  <clipPath id="p097c2ac9bc">
   <rect x="22.903125" y="0" width="357.12" height="266.112"/>
  </clipPath>
 </defs>
</svg>
