<?xml version="1.0" encoding="utf-8" standalone="no"?>
<!DOCTYPE svg PUBLIC "-//W3C//DTD SVG 1.1//EN"
  "http://www.w3.org/Graphics/SVG/1.1/DTD/svg11.dtd">
<svg xmlns:xlink="http://www.w3.org/1999/xlink" width="396.885625pt" height="296.46825pt" viewBox="0 0 396.885625 296.46825" xmlns="http://www.w3.org/2000/svg" version="1.1">
 <metadata>
  <rdf:RDF xmlns:dc="http://purl.org/dc/elements/1.1/" xmlns:cc="http://creativecommons.org/ns#" xmlns:rdf="http://www.w3.org/1999/02/22-rdf-syntax-ns#">
   <cc:Work>
    <dc:type rdf:resource="http://purl.org/dc/dcmitype/StillImage"/>
    <dc:date>2023-08-05T16:13:04.937637</dc:date>
    <dc:format>image/svg+xml</dc:format>
    <dc:creator>
     <cc:Agent>
      <dc:title>Matplotlib v3.7.1, https://matplotlib.org/</dc:title>
     </cc:Agent>
    </dc:creator>
   </cc:Work>
  </rdf:RDF>
 </metadata>
 <defs>
  <style type="text/css">*{stroke-linejoin: round; stroke-linecap: butt}</style>
 </defs>
 <g id="figure_1">
  <g id="patch_1">
   <path d="M 0 296.46825 
L 396.885625 296.46825 
L 396.885625 0 
L 0 0 
z
" style="fill: #ffffff"/>
  </g>
  <g id="axes_1">
   <g id="patch_2">
    <path d="M 39.765625 266.112 
L 396.885625 266.112 
L 396.885625 -0 
L 39.765625 -0 
z
" style="fill: #ffffff"/>
   </g>
   <g id="PathCollection_1">
    <path d="M 55.998352 256.252068 
C 56.591364 256.252068 57.160168 256.016462 57.579491 255.597139 
C 57.998814 255.177816 58.23442 254.609012 58.23442 254.016 
C 58.23442 253.422988 57.998814 252.854184 57.579491 252.434861 
C 57.160168 252.015538 56.591364 251.779932 55.998352 251.779932 
C 55.40534 251.779932 54.836536 252.015538 54.417213 252.434861 
C 53.997891 252.854184 53.762284 253.422988 53.762284 254.016 
C 53.762284 254.609012 53.997891 255.177816 54.417213 255.597139 
C 54.836536 256.016462 55.40534 256.252068 55.998352 256.252068 
z
" clip-path="url(#p20d8ec174a)" style="fill: #1f77b4; stroke: #1f77b4"/>
    <path d="M 86.628528 235.383109 
C 87.467174 235.383109 88.271584 235.049911 88.864596 234.456899 
C 89.457608 233.863887 89.790805 233.059477 89.790805 232.220831 
C 89.790805 231.382185 89.457608 230.577775 88.864596 229.984763 
C 88.271584 229.391751 87.467174 229.058553 86.628528 229.058553 
C 85.789882 229.058553 84.985472 229.391751 84.39246 229.984763 
C 83.799448 230.577775 83.46625 231.382185 83.46625 232.220831 
C 83.46625 233.059477 83.799448 233.863887 84.39246 234.456899 
C 84.985472 235.049911 85.789882 235.383109 86.628528 235.383109 
z
" clip-path="url(#p20d8ec174a)" style="fill: #1f77b4; stroke: #1f77b4"/>
    <path d="M 132.573791 197.29705 
C 133.600918 197.29705 134.586115 196.888968 135.312404 196.162679 
C 136.038692 195.43639 136.446774 194.451193 136.446774 193.424066 
C 136.446774 192.396939 136.038692 191.411742 135.312404 190.685453 
C 134.586115 189.959165 133.600918 189.551083 132.573791 189.551083 
C 131.546664 189.551083 130.561467 189.959165 129.835178 190.685453 
C 129.108889 191.411742 128.700808 192.396939 128.700808 193.424066 
C 128.700808 194.451193 129.108889 195.43639 129.835178 196.162679 
C 130.561467 196.888968 131.546664 197.29705 132.573791 197.29705 
z
" clip-path="url(#p20d8ec174a)" style="fill: #1f77b4; stroke: #1f77b4"/>
   </g>
   <g id="PathCollection_2">
    <path d="M 79.920266 245.542864 
C 80.513278 245.542864 81.082082 245.307258 81.501405 244.887935 
C 81.920728 244.468612 82.156334 243.899808 82.156334 243.306796 
C 82.156334 242.713784 81.920728 242.14498 81.501405 241.725657 
C 81.082082 241.306335 80.513278 241.070728 79.920266 241.070728 
C 79.327254 241.070728 78.75845 241.306335 78.339127 241.725657 
C 77.919804 242.14498 77.684198 242.713784 77.684198 243.306796 
C 77.684198 243.899808 77.919804 244.468612 78.339127 244.887935 
C 78.75845 245.307258 79.327254 245.542864 79.920266 245.542864 
z
" clip-path="url(#p20d8ec174a)" style="fill: #ff7f0e; stroke: #ff7f0e"/>
    <path d="M 153.078288 194.435393 
C 153.916934 194.435393 154.721344 194.102195 155.314356 193.509183 
C 155.907369 192.916171 156.240566 192.111761 156.240566 191.273115 
C 156.240566 190.434469 155.907369 189.630059 155.314356 189.037047 
C 154.721344 188.444035 153.916934 188.110837 153.078288 188.110837 
C 152.239643 188.110837 151.435233 188.444035 150.84222 189.037047 
C 150.249208 189.630059 149.916011 190.434469 149.916011 191.273115 
C 149.916011 192.111761 150.249208 192.916171 150.84222 193.509183 
C 151.435233 194.102195 152.239643 194.435393 153.078288 194.435393 
z
" clip-path="url(#p20d8ec174a)" style="fill: #ff7f0e; stroke: #ff7f0e"/>
    <path d="M 262.815322 102.04024 
C 263.842449 102.04024 264.827646 101.632158 265.553935 100.90587 
C 266.280223 100.179581 266.688305 99.194384 266.688305 98.167257 
C 266.688305 97.14013 266.280223 96.154933 265.553935 95.428644 
C 264.827646 94.702356 263.842449 94.294274 262.815322 94.294274 
C 261.788195 94.294274 260.802998 94.702356 260.076709 95.428644 
C 259.350421 96.154933 258.942339 97.14013 258.942339 98.167257 
C 258.942339 99.194384 259.350421 100.179581 260.076709 100.90587 
C 260.802998 101.632158 261.788195 102.04024 262.815322 102.04024 
z
" clip-path="url(#p20d8ec174a)" style="fill: #ff7f0e; stroke: #ff7f0e"/>
   </g>
   <g id="PathCollection_3">
    <path d="M 101.563903 235.893119 
C 102.156915 235.893119 102.725718 235.657513 103.145041 235.23819 
C 103.564364 234.818867 103.79997 234.250064 103.79997 233.657051 
C 103.79997 233.064039 103.564364 232.495236 103.145041 232.075913 
C 102.725718 231.65659 102.156915 231.420983 101.563903 231.420983 
C 100.97089 231.420983 100.402087 231.65659 99.982764 232.075913 
C 99.563441 232.495236 99.327835 233.064039 99.327835 233.657051 
C 99.327835 234.250064 99.563441 234.818867 99.982764 235.23819 
C 100.402087 235.657513 100.97089 235.893119 101.563903 235.893119 
z
" clip-path="url(#p20d8ec174a)" style="fill: #2ca02c; stroke: #2ca02c"/>
    <path d="M 213.199501 157.488493 
C 214.038146 157.488493 214.842556 157.155296 215.435569 156.562283 
C 216.028581 155.969271 216.361778 155.164861 216.361778 154.326215 
C 216.361778 153.48757 216.028581 152.68316 215.435569 152.090147 
C 214.842556 151.497135 214.038146 151.163938 213.199501 151.163938 
C 212.360855 151.163938 211.556445 151.497135 210.963433 152.090147 
C 210.37042 152.68316 210.037223 153.48757 210.037223 154.326215 
C 210.037223 155.164861 210.37042 155.969271 210.963433 156.562283 
C 211.556445 157.155296 212.360855 157.488493 213.199501 157.488493 
z
" clip-path="url(#p20d8ec174a)" style="fill: #2ca02c; stroke: #2ca02c"/>
    <path d="M 380.652898 15.968983 
C 381.680025 15.968983 382.665222 15.560901 383.391511 14.834613 
C 384.117799 14.108324 384.525881 13.123127 384.525881 12.096 
C 384.525881 11.068873 384.117799 10.083676 383.391511 9.357387 
C 382.665222 8.631099 381.680025 8.223017 380.652898 8.223017 
C 379.625771 8.223017 378.640574 8.631099 377.914285 9.357387 
C 377.187996 10.083676 376.779914 11.068873 376.779914 12.096 
C 376.779914 13.123127 377.187996 14.108324 377.914285 14.834613 
C 378.640574 15.560901 379.625771 15.968983 380.652898 15.968983 
z
" clip-path="url(#p20d8ec174a)" style="fill: #2ca02c; stroke: #2ca02c"/>
   </g>
   <g id="matplotlib.axis_1">
    <g id="xtick_1">
     <g id="line2d_1">
      <defs>
       <path id="mfc78d04366" d="M 0 0 
L 0 3.5 
" style="stroke: #000000; stroke-width: 0.8"/>
      </defs>
      <g>
       <use xlink:href="#mfc78d04366" x="117.875737" y="266.112" style="stroke: #000000; stroke-width: 0.8"/>
      </g>
     </g>
     <g id="text_1">
      <!-- 5000 -->
      <g transform="translate(105.150737 280.710437) scale(0.1 -0.1)">
       <defs>
        <path id="DejaVuSans-35" d="M 691 4666 
L 3169 4666 
L 3169 4134 
L 1269 4134 
L 1269 2991 
Q 1406 3038 1543 3061 
Q 1681 3084 1819 3084 
Q 2600 3084 3056 2656 
Q 3513 2228 3513 1497 
Q 3513 744 3044 326 
Q 2575 -91 1722 -91 
Q 1428 -91 1123 -41 
Q 819 9 494 109 
L 494 744 
Q 775 591 1075 516 
Q 1375 441 1709 441 
Q 2250 441 2565 725 
Q 2881 1009 2881 1497 
Q 2881 1984 2565 2268 
Q 2250 2553 1709 2553 
Q 1456 2553 1204 2497 
Q 953 2441 691 2322 
L 691 4666 
z
" transform="scale(0.015625)"/>
        <path id="DejaVuSans-30" d="M 2034 4250 
Q 1547 4250 1301 3770 
Q 1056 3291 1056 2328 
Q 1056 1369 1301 889 
Q 1547 409 2034 409 
Q 2525 409 2770 889 
Q 3016 1369 3016 2328 
Q 3016 3291 2770 3770 
Q 2525 4250 2034 4250 
z
M 2034 4750 
Q 2819 4750 3233 4129 
Q 3647 3509 3647 2328 
Q 3647 1150 3233 529 
Q 2819 -91 2034 -91 
Q 1250 -91 836 529 
Q 422 1150 422 2328 
Q 422 3509 836 4129 
Q 1250 4750 2034 4750 
z
" transform="scale(0.015625)"/>
       </defs>
       <use xlink:href="#DejaVuSans-35"/>
       <use xlink:href="#DejaVuSans-30" x="63.623047"/>
       <use xlink:href="#DejaVuSans-30" x="127.246094"/>
       <use xlink:href="#DejaVuSans-30" x="190.869141"/>
      </g>
     </g>
    </g>
    <g id="xtick_2">
     <g id="line2d_2">
      <g>
       <use xlink:href="#mfc78d04366" x="196.982595" y="266.112" style="stroke: #000000; stroke-width: 0.8"/>
      </g>
     </g>
     <g id="text_2">
      <!-- 10000 -->
      <g transform="translate(181.076345 280.710437) scale(0.1 -0.1)">
       <defs>
        <path id="DejaVuSans-31" d="M 794 531 
L 1825 531 
L 1825 4091 
L 703 3866 
L 703 4441 
L 1819 4666 
L 2450 4666 
L 2450 531 
L 3481 531 
L 3481 0 
L 794 0 
L 794 531 
z
" transform="scale(0.015625)"/>
       </defs>
       <use xlink:href="#DejaVuSans-31"/>
       <use xlink:href="#DejaVuSans-30" x="63.623047"/>
       <use xlink:href="#DejaVuSans-30" x="127.246094"/>
       <use xlink:href="#DejaVuSans-30" x="190.869141"/>
       <use xlink:href="#DejaVuSans-30" x="254.492188"/>
      </g>
     </g>
    </g>
    <g id="xtick_3">
     <g id="line2d_3">
      <g>
       <use xlink:href="#mfc78d04366" x="276.089453" y="266.112" style="stroke: #000000; stroke-width: 0.8"/>
      </g>
     </g>
     <g id="text_3">
      <!-- 15000 -->
      <g transform="translate(260.183203 280.710437) scale(0.1 -0.1)">
       <use xlink:href="#DejaVuSans-31"/>
       <use xlink:href="#DejaVuSans-35" x="63.623047"/>
       <use xlink:href="#DejaVuSans-30" x="127.246094"/>
       <use xlink:href="#DejaVuSans-30" x="190.869141"/>
       <use xlink:href="#DejaVuSans-30" x="254.492188"/>
      </g>
     </g>
    </g>
    <g id="xtick_4">
     <g id="line2d_4">
      <g>
       <use xlink:href="#mfc78d04366" x="355.196311" y="266.112" style="stroke: #000000; stroke-width: 0.8"/>
      </g>
     </g>
     <g id="text_4">
      <!-- 20000 -->
      <g transform="translate(339.290061 280.710437) scale(0.1 -0.1)">
       <defs>
        <path id="DejaVuSans-32" d="M 1228 531 
L 3431 531 
L 3431 0 
L 469 0 
L 469 531 
Q 828 903 1448 1529 
Q 2069 2156 2228 2338 
Q 2531 2678 2651 2914 
Q 2772 3150 2772 3378 
Q 2772 3750 2511 3984 
Q 2250 4219 1831 4219 
Q 1534 4219 1204 4116 
Q 875 4013 500 3803 
L 500 4441 
Q 881 4594 1212 4672 
Q 1544 4750 1819 4750 
Q 2544 4750 2975 4387 
Q 3406 4025 3406 3419 
Q 3406 3131 3298 2873 
Q 3191 2616 2906 2266 
Q 2828 2175 2409 1742 
Q 1991 1309 1228 531 
z
" transform="scale(0.015625)"/>
       </defs>
       <use xlink:href="#DejaVuSans-32"/>
       <use xlink:href="#DejaVuSans-30" x="63.623047"/>
       <use xlink:href="#DejaVuSans-30" x="127.246094"/>
       <use xlink:href="#DejaVuSans-30" x="190.869141"/>
       <use xlink:href="#DejaVuSans-30" x="254.492188"/>
      </g>
     </g>
    </g>
    <g id="text_5">
     <!-- comparisons per pixel -->
     <g transform="translate(163.21 294.388562) scale(0.1 -0.1)">
      <defs>
       <path id="DejaVuSans-63" d="M 3122 3366 
L 3122 2828 
Q 2878 2963 2633 3030 
Q 2388 3097 2138 3097 
Q 1578 3097 1268 2742 
Q 959 2388 959 1747 
Q 959 1106 1268 751 
Q 1578 397 2138 397 
Q 2388 397 2633 464 
Q 2878 531 3122 666 
L 3122 134 
Q 2881 22 2623 -34 
Q 2366 -91 2075 -91 
Q 1284 -91 818 406 
Q 353 903 353 1747 
Q 353 2603 823 3093 
Q 1294 3584 2113 3584 
Q 2378 3584 2631 3529 
Q 2884 3475 3122 3366 
z
" transform="scale(0.015625)"/>
       <path id="DejaVuSans-6f" d="M 1959 3097 
Q 1497 3097 1228 2736 
Q 959 2375 959 1747 
Q 959 1119 1226 758 
Q 1494 397 1959 397 
Q 2419 397 2687 759 
Q 2956 1122 2956 1747 
Q 2956 2369 2687 2733 
Q 2419 3097 1959 3097 
z
M 1959 3584 
Q 2709 3584 3137 3096 
Q 3566 2609 3566 1747 
Q 3566 888 3137 398 
Q 2709 -91 1959 -91 
Q 1206 -91 779 398 
Q 353 888 353 1747 
Q 353 2609 779 3096 
Q 1206 3584 1959 3584 
z
" transform="scale(0.015625)"/>
       <path id="DejaVuSans-6d" d="M 3328 2828 
Q 3544 3216 3844 3400 
Q 4144 3584 4550 3584 
Q 5097 3584 5394 3201 
Q 5691 2819 5691 2113 
L 5691 0 
L 5113 0 
L 5113 2094 
Q 5113 2597 4934 2840 
Q 4756 3084 4391 3084 
Q 3944 3084 3684 2787 
Q 3425 2491 3425 1978 
L 3425 0 
L 2847 0 
L 2847 2094 
Q 2847 2600 2669 2842 
Q 2491 3084 2119 3084 
Q 1678 3084 1418 2786 
Q 1159 2488 1159 1978 
L 1159 0 
L 581 0 
L 581 3500 
L 1159 3500 
L 1159 2956 
Q 1356 3278 1631 3431 
Q 1906 3584 2284 3584 
Q 2666 3584 2933 3390 
Q 3200 3197 3328 2828 
z
" transform="scale(0.015625)"/>
       <path id="DejaVuSans-70" d="M 1159 525 
L 1159 -1331 
L 581 -1331 
L 581 3500 
L 1159 3500 
L 1159 2969 
Q 1341 3281 1617 3432 
Q 1894 3584 2278 3584 
Q 2916 3584 3314 3078 
Q 3713 2572 3713 1747 
Q 3713 922 3314 415 
Q 2916 -91 2278 -91 
Q 1894 -91 1617 61 
Q 1341 213 1159 525 
z
M 3116 1747 
Q 3116 2381 2855 2742 
Q 2594 3103 2138 3103 
Q 1681 3103 1420 2742 
Q 1159 2381 1159 1747 
Q 1159 1113 1420 752 
Q 1681 391 2138 391 
Q 2594 391 2855 752 
Q 3116 1113 3116 1747 
z
" transform="scale(0.015625)"/>
       <path id="DejaVuSans-61" d="M 2194 1759 
Q 1497 1759 1228 1600 
Q 959 1441 959 1056 
Q 959 750 1161 570 
Q 1363 391 1709 391 
Q 2188 391 2477 730 
Q 2766 1069 2766 1631 
L 2766 1759 
L 2194 1759 
z
M 3341 1997 
L 3341 0 
L 2766 0 
L 2766 531 
Q 2569 213 2275 61 
Q 1981 -91 1556 -91 
Q 1019 -91 701 211 
Q 384 513 384 1019 
Q 384 1609 779 1909 
Q 1175 2209 1959 2209 
L 2766 2209 
L 2766 2266 
Q 2766 2663 2505 2880 
Q 2244 3097 1772 3097 
Q 1472 3097 1187 3025 
Q 903 2953 641 2809 
L 641 3341 
Q 956 3463 1253 3523 
Q 1550 3584 1831 3584 
Q 2591 3584 2966 3190 
Q 3341 2797 3341 1997 
z
" transform="scale(0.015625)"/>
       <path id="DejaVuSans-72" d="M 2631 2963 
Q 2534 3019 2420 3045 
Q 2306 3072 2169 3072 
Q 1681 3072 1420 2755 
Q 1159 2438 1159 1844 
L 1159 0 
L 581 0 
L 581 3500 
L 1159 3500 
L 1159 2956 
Q 1341 3275 1631 3429 
Q 1922 3584 2338 3584 
Q 2397 3584 2469 3576 
Q 2541 3569 2628 3553 
L 2631 2963 
z
" transform="scale(0.015625)"/>
       <path id="DejaVuSans-69" d="M 603 3500 
L 1178 3500 
L 1178 0 
L 603 0 
L 603 3500 
z
M 603 4863 
L 1178 4863 
L 1178 4134 
L 603 4134 
L 603 4863 
z
" transform="scale(0.015625)"/>
       <path id="DejaVuSans-73" d="M 2834 3397 
L 2834 2853 
Q 2591 2978 2328 3040 
Q 2066 3103 1784 3103 
Q 1356 3103 1142 2972 
Q 928 2841 928 2578 
Q 928 2378 1081 2264 
Q 1234 2150 1697 2047 
L 1894 2003 
Q 2506 1872 2764 1633 
Q 3022 1394 3022 966 
Q 3022 478 2636 193 
Q 2250 -91 1575 -91 
Q 1294 -91 989 -36 
Q 684 19 347 128 
L 347 722 
Q 666 556 975 473 
Q 1284 391 1588 391 
Q 1994 391 2212 530 
Q 2431 669 2431 922 
Q 2431 1156 2273 1281 
Q 2116 1406 1581 1522 
L 1381 1569 
Q 847 1681 609 1914 
Q 372 2147 372 2553 
Q 372 3047 722 3315 
Q 1072 3584 1716 3584 
Q 2034 3584 2315 3537 
Q 2597 3491 2834 3397 
z
" transform="scale(0.015625)"/>
       <path id="DejaVuSans-6e" d="M 3513 2113 
L 3513 0 
L 2938 0 
L 2938 2094 
Q 2938 2591 2744 2837 
Q 2550 3084 2163 3084 
Q 1697 3084 1428 2787 
Q 1159 2491 1159 1978 
L 1159 0 
L 581 0 
L 581 3500 
L 1159 3500 
L 1159 2956 
Q 1366 3272 1645 3428 
Q 1925 3584 2291 3584 
Q 2894 3584 3203 3211 
Q 3513 2838 3513 2113 
z
" transform="scale(0.015625)"/>
       <path id="DejaVuSans-20" transform="scale(0.015625)"/>
       <path id="DejaVuSans-65" d="M 3597 1894 
L 3597 1613 
L 953 1613 
Q 991 1019 1311 708 
Q 1631 397 2203 397 
Q 2534 397 2845 478 
Q 3156 559 3463 722 
L 3463 178 
Q 3153 47 2828 -22 
Q 2503 -91 2169 -91 
Q 1331 -91 842 396 
Q 353 884 353 1716 
Q 353 2575 817 3079 
Q 1281 3584 2069 3584 
Q 2775 3584 3186 3129 
Q 3597 2675 3597 1894 
z
M 3022 2063 
Q 3016 2534 2758 2815 
Q 2500 3097 2075 3097 
Q 1594 3097 1305 2825 
Q 1016 2553 972 2059 
L 3022 2063 
z
" transform="scale(0.015625)"/>
       <path id="DejaVuSans-78" d="M 3513 3500 
L 2247 1797 
L 3578 0 
L 2900 0 
L 1881 1375 
L 863 0 
L 184 0 
L 1544 1831 
L 300 3500 
L 978 3500 
L 1906 2253 
L 2834 3500 
L 3513 3500 
z
" transform="scale(0.015625)"/>
       <path id="DejaVuSans-6c" d="M 603 4863 
L 1178 4863 
L 1178 0 
L 603 0 
L 603 4863 
z
" transform="scale(0.015625)"/>
      </defs>
      <use xlink:href="#DejaVuSans-63"/>
      <use xlink:href="#DejaVuSans-6f" x="54.980469"/>
      <use xlink:href="#DejaVuSans-6d" x="116.162109"/>
      <use xlink:href="#DejaVuSans-70" x="213.574219"/>
      <use xlink:href="#DejaVuSans-61" x="277.050781"/>
      <use xlink:href="#DejaVuSans-72" x="338.330078"/>
      <use xlink:href="#DejaVuSans-69" x="379.443359"/>
      <use xlink:href="#DejaVuSans-73" x="407.226562"/>
      <use xlink:href="#DejaVuSans-6f" x="459.326172"/>
      <use xlink:href="#DejaVuSans-6e" x="520.507812"/>
      <use xlink:href="#DejaVuSans-73" x="583.886719"/>
      <use xlink:href="#DejaVuSans-20" x="635.986328"/>
      <use xlink:href="#DejaVuSans-70" x="667.773438"/>
      <use xlink:href="#DejaVuSans-65" x="731.25"/>
      <use xlink:href="#DejaVuSans-72" x="792.773438"/>
      <use xlink:href="#DejaVuSans-20" x="833.886719"/>
      <use xlink:href="#DejaVuSans-70" x="865.673828"/>
      <use xlink:href="#DejaVuSans-69" x="929.150391"/>
      <use xlink:href="#DejaVuSans-78" x="956.933594"/>
      <use xlink:href="#DejaVuSans-65" x="1012.988281"/>
      <use xlink:href="#DejaVuSans-6c" x="1074.511719"/>
     </g>
    </g>
   </g>
   <g id="matplotlib.axis_2">
    <g id="ytick_1">
     <g id="line2d_5">
      <defs>
       <path id="m3130af9172" d="M 0 0 
L -3.5 0 
" style="stroke: #000000; stroke-width: 0.8"/>
      </defs>
      <g>
       <use xlink:href="#m3130af9172" x="39.765625" y="261.812206" style="stroke: #000000; stroke-width: 0.8"/>
      </g>
     </g>
     <g id="text_6">
      <!-- 0 -->
      <g transform="translate(26.403125 265.611425) scale(0.1 -0.1)">
       <use xlink:href="#DejaVuSans-30"/>
      </g>
     </g>
    </g>
    <g id="ytick_2">
     <g id="line2d_6">
      <g>
       <use xlink:href="#m3130af9172" x="39.765625" y="225.076464" style="stroke: #000000; stroke-width: 0.8"/>
      </g>
     </g>
     <g id="text_7">
      <!-- 25 -->
      <g transform="translate(20.040625 228.875682) scale(0.1 -0.1)">
       <use xlink:href="#DejaVuSans-32"/>
       <use xlink:href="#DejaVuSans-35" x="63.623047"/>
      </g>
     </g>
    </g>
    <g id="ytick_3">
     <g id="line2d_7">
      <g>
       <use xlink:href="#m3130af9172" x="39.765625" y="188.340721" style="stroke: #000000; stroke-width: 0.8"/>
      </g>
     </g>
     <g id="text_8">
      <!-- 50 -->
      <g transform="translate(20.040625 192.13994) scale(0.1 -0.1)">
       <use xlink:href="#DejaVuSans-35"/>
       <use xlink:href="#DejaVuSans-30" x="63.623047"/>
      </g>
     </g>
    </g>
    <g id="ytick_4">
     <g id="line2d_8">
      <g>
       <use xlink:href="#m3130af9172" x="39.765625" y="151.604978" style="stroke: #000000; stroke-width: 0.8"/>
      </g>
     </g>
     <g id="text_9">
      <!-- 75 -->
      <g transform="translate(20.040625 155.404197) scale(0.1 -0.1)">
       <defs>
        <path id="DejaVuSans-37" d="M 525 4666 
L 3525 4666 
L 3525 4397 
L 1831 0 
L 1172 0 
L 2766 4134 
L 525 4134 
L 525 4666 
z
" transform="scale(0.015625)"/>
       </defs>
       <use xlink:href="#DejaVuSans-37"/>
       <use xlink:href="#DejaVuSans-35" x="63.623047"/>
      </g>
     </g>
    </g>
    <g id="ytick_5">
     <g id="line2d_9">
      <g>
       <use xlink:href="#m3130af9172" x="39.765625" y="114.869236" style="stroke: #000000; stroke-width: 0.8"/>
      </g>
     </g>
     <g id="text_10">
      <!-- 100 -->
      <g transform="translate(13.678125 118.668455) scale(0.1 -0.1)">
       <use xlink:href="#DejaVuSans-31"/>
       <use xlink:href="#DejaVuSans-30" x="63.623047"/>
       <use xlink:href="#DejaVuSans-30" x="127.246094"/>
      </g>
     </g>
    </g>
    <g id="ytick_6">
     <g id="line2d_10">
      <g>
       <use xlink:href="#m3130af9172" x="39.765625" y="78.133493" style="stroke: #000000; stroke-width: 0.8"/>
      </g>
     </g>
     <g id="text_11">
      <!-- 125 -->
      <g transform="translate(13.678125 81.932712) scale(0.1 -0.1)">
       <use xlink:href="#DejaVuSans-31"/>
       <use xlink:href="#DejaVuSans-32" x="63.623047"/>
       <use xlink:href="#DejaVuSans-35" x="127.246094"/>
      </g>
     </g>
    </g>
    <g id="ytick_7">
     <g id="line2d_11">
      <g>
       <use xlink:href="#m3130af9172" x="39.765625" y="41.397751" style="stroke: #000000; stroke-width: 0.8"/>
      </g>
     </g>
     <g id="text_12">
      <!-- 150 -->
      <g transform="translate(13.678125 45.19697) scale(0.1 -0.1)">
       <use xlink:href="#DejaVuSans-31"/>
       <use xlink:href="#DejaVuSans-35" x="63.623047"/>
       <use xlink:href="#DejaVuSans-30" x="127.246094"/>
      </g>
     </g>
    </g>
    <g id="ytick_8">
     <g id="line2d_12">
      <g>
       <use xlink:href="#m3130af9172" x="39.765625" y="4.662008" style="stroke: #000000; stroke-width: 0.8"/>
      </g>
     </g>
     <g id="text_13">
      <!-- 175 -->
      <g transform="translate(13.678125 8.461227) scale(0.1 -0.1)">
       <use xlink:href="#DejaVuSans-31"/>
       <use xlink:href="#DejaVuSans-37" x="63.623047"/>
       <use xlink:href="#DejaVuSans-35" x="127.246094"/>
      </g>
     </g>
    </g>
    <g id="text_14">
     <!-- execution time (s) -->
     <g transform="translate(7.598438 178.400531) rotate(-90) scale(0.1 -0.1)">
      <defs>
       <path id="DejaVuSans-75" d="M 544 1381 
L 544 3500 
L 1119 3500 
L 1119 1403 
Q 1119 906 1312 657 
Q 1506 409 1894 409 
Q 2359 409 2629 706 
Q 2900 1003 2900 1516 
L 2900 3500 
L 3475 3500 
L 3475 0 
L 2900 0 
L 2900 538 
Q 2691 219 2414 64 
Q 2138 -91 1772 -91 
Q 1169 -91 856 284 
Q 544 659 544 1381 
z
M 1991 3584 
L 1991 3584 
z
" transform="scale(0.015625)"/>
       <path id="DejaVuSans-74" d="M 1172 4494 
L 1172 3500 
L 2356 3500 
L 2356 3053 
L 1172 3053 
L 1172 1153 
Q 1172 725 1289 603 
Q 1406 481 1766 481 
L 2356 481 
L 2356 0 
L 1766 0 
Q 1100 0 847 248 
Q 594 497 594 1153 
L 594 3053 
L 172 3053 
L 172 3500 
L 594 3500 
L 594 4494 
L 1172 4494 
z
" transform="scale(0.015625)"/>
       <path id="DejaVuSans-28" d="M 1984 4856 
Q 1566 4138 1362 3434 
Q 1159 2731 1159 2009 
Q 1159 1288 1364 580 
Q 1569 -128 1984 -844 
L 1484 -844 
Q 1016 -109 783 600 
Q 550 1309 550 2009 
Q 550 2706 781 3412 
Q 1013 4119 1484 4856 
L 1984 4856 
z
" transform="scale(0.015625)"/>
       <path id="DejaVuSans-29" d="M 513 4856 
L 1013 4856 
Q 1481 4119 1714 3412 
Q 1947 2706 1947 2009 
Q 1947 1309 1714 600 
Q 1481 -109 1013 -844 
L 513 -844 
Q 928 -128 1133 580 
Q 1338 1288 1338 2009 
Q 1338 2731 1133 3434 
Q 928 4138 513 4856 
z
" transform="scale(0.015625)"/>
      </defs>
      <use xlink:href="#DejaVuSans-65"/>
      <use xlink:href="#DejaVuSans-78" x="59.773438"/>
      <use xlink:href="#DejaVuSans-65" x="115.828125"/>
      <use xlink:href="#DejaVuSans-63" x="177.351562"/>
      <use xlink:href="#DejaVuSans-75" x="232.332031"/>
      <use xlink:href="#DejaVuSans-74" x="295.710938"/>
      <use xlink:href="#DejaVuSans-69" x="334.919922"/>
      <use xlink:href="#DejaVuSans-6f" x="362.703125"/>
      <use xlink:href="#DejaVuSans-6e" x="423.884766"/>
      <use xlink:href="#DejaVuSans-20" x="487.263672"/>
      <use xlink:href="#DejaVuSans-74" x="519.050781"/>
      <use xlink:href="#DejaVuSans-69" x="558.259766"/>
      <use xlink:href="#DejaVuSans-6d" x="586.042969"/>
      <use xlink:href="#DejaVuSans-65" x="683.455078"/>
      <use xlink:href="#DejaVuSans-20" x="744.978516"/>
      <use xlink:href="#DejaVuSans-28" x="776.765625"/>
      <use xlink:href="#DejaVuSans-73" x="815.779297"/>
      <use xlink:href="#DejaVuSans-29" x="867.878906"/>
     </g>
    </g>
   </g>
   <g id="patch_3">
    <path d="M 39.765625 266.112 
L 39.765625 -0 
" style="fill: none; stroke: #000000; stroke-width: 0.8; stroke-linejoin: miter; stroke-linecap: square"/>
   </g>
   <g id="patch_4">
    <path d="M 396.885625 266.112 
L 396.885625 -0 
" style="fill: none; stroke: #000000; stroke-width: 0.8; stroke-linejoin: miter; stroke-linecap: square"/>
   </g>
   <g id="patch_5">
    <path d="M 39.765625 266.112 
L 396.885625 266.112 
" style="fill: none; stroke: #000000; stroke-width: 0.8; stroke-linejoin: miter; stroke-linecap: square"/>
   </g>
   <g id="patch_6">
    <path d="M 39.765625 -0 
L 396.885625 -0 
" style="fill: none; stroke: #000000; stroke-width: 0.8; stroke-linejoin: miter; stroke-linecap: square"/>
   </g>
   <g id="legend_1">
    <g id="patch_7">
     <path d="M 46.765625 77.910312 
L 91.490625 77.910312 
Q 93.490625 77.910312 93.490625 75.910312 
L 93.490625 7 
Q 93.490625 5 91.490625 5 
L 46.765625 5 
Q 44.765625 5 44.765625 7 
L 44.765625 75.910312 
Q 44.765625 77.910312 46.765625 77.910312 
z
" style="fill: #ffffff; opacity: 0.8; stroke: #cccccc; stroke-linejoin: miter"/>
    </g>
    <g id="text_15">
     <!-- search -->
     <g transform="translate(52.521875 16.598437) scale(0.1 -0.1)">
      <defs>
       <path id="DejaVuSans-68" d="M 3513 2113 
L 3513 0 
L 2938 0 
L 2938 2094 
Q 2938 2591 2744 2837 
Q 2550 3084 2163 3084 
Q 1697 3084 1428 2787 
Q 1159 2491 1159 1978 
L 1159 0 
L 581 0 
L 581 4863 
L 1159 4863 
L 1159 2956 
Q 1366 3272 1645 3428 
Q 1925 3584 2291 3584 
Q 2894 3584 3203 3211 
Q 3513 2838 3513 2113 
z
" transform="scale(0.015625)"/>
      </defs>
      <use xlink:href="#DejaVuSans-73"/>
      <use xlink:href="#DejaVuSans-65" x="52.099609"/>
      <use xlink:href="#DejaVuSans-61" x="113.623047"/>
      <use xlink:href="#DejaVuSans-72" x="174.902344"/>
      <use xlink:href="#DejaVuSans-63" x="213.765625"/>
      <use xlink:href="#DejaVuSans-68" x="268.746094"/>
     </g>
     <!-- radius -->
     <g transform="translate(52.521875 27.79625) scale(0.1 -0.1)">
      <defs>
       <path id="DejaVuSans-64" d="M 2906 2969 
L 2906 4863 
L 3481 4863 
L 3481 0 
L 2906 0 
L 2906 525 
Q 2725 213 2448 61 
Q 2172 -91 1784 -91 
Q 1150 -91 751 415 
Q 353 922 353 1747 
Q 353 2572 751 3078 
Q 1150 3584 1784 3584 
Q 2172 3584 2448 3432 
Q 2725 3281 2906 2969 
z
M 947 1747 
Q 947 1113 1208 752 
Q 1469 391 1925 391 
Q 2381 391 2643 752 
Q 2906 1113 2906 1747 
Q 2906 2381 2643 2742 
Q 2381 3103 1925 3103 
Q 1469 3103 1208 2742 
Q 947 2381 947 1747 
z
" transform="scale(0.015625)"/>
      </defs>
      <use xlink:href="#DejaVuSans-72"/>
      <use xlink:href="#DejaVuSans-61" x="41.113281"/>
      <use xlink:href="#DejaVuSans-64" x="102.392578"/>
      <use xlink:href="#DejaVuSans-69" x="165.869141"/>
      <use xlink:href="#DejaVuSans-75" x="193.652344"/>
      <use xlink:href="#DejaVuSans-73" x="257.03125"/>
     </g>
    </g>
    <g id="PathCollection_4">
     <defs>
      <path id="m41b1c666a7" d="M 0 3.162278 
C 0.838646 3.162278 1.643056 2.82908 2.236068 2.236068 
C 2.82908 1.643056 3.162278 0.838646 3.162278 0 
C 3.162278 -0.838646 2.82908 -1.643056 2.236068 -2.236068 
C 1.643056 -2.82908 0.838646 -3.162278 0 -3.162278 
C -0.838646 -3.162278 -1.643056 -2.82908 -2.236068 -2.236068 
C -2.82908 -1.643056 -3.162278 -0.838646 -3.162278 0 
C -3.162278 0.838646 -2.82908 1.643056 -2.236068 2.236068 
C -1.643056 2.82908 -0.838646 3.162278 0 3.162278 
z
" style="stroke: #1f77b4"/>
     </defs>
     <g>
      <use xlink:href="#m41b1c666a7" x="58.765625" y="39.849375" style="fill: #1f77b4; stroke: #1f77b4"/>
     </g>
    </g>
    <g id="text_16">
     <!-- 5 -->
     <g transform="translate(76.765625 42.474375) scale(0.1 -0.1)">
      <use xlink:href="#DejaVuSans-35"/>
     </g>
    </g>
    <g id="PathCollection_5">
     <defs>
      <path id="m8bb3f42179" d="M 0 3.162278 
C 0.838646 3.162278 1.643056 2.82908 2.236068 2.236068 
C 2.82908 1.643056 3.162278 0.838646 3.162278 0 
C 3.162278 -0.838646 2.82908 -1.643056 2.236068 -2.236068 
C 1.643056 -2.82908 0.838646 -3.162278 0 -3.162278 
C -0.838646 -3.162278 -1.643056 -2.82908 -2.236068 -2.236068 
C -2.82908 -1.643056 -3.162278 -0.838646 -3.162278 0 
C -3.162278 0.838646 -2.82908 1.643056 -2.236068 2.236068 
C -1.643056 2.82908 -0.838646 3.162278 0 3.162278 
z
" style="stroke: #ff7f0e"/>
     </defs>
     <g>
      <use xlink:href="#m8bb3f42179" x="58.765625" y="54.5275" style="fill: #ff7f0e; stroke: #ff7f0e"/>
     </g>
    </g>
    <g id="text_17">
     <!-- 8 -->
     <g transform="translate(76.765625 57.1525) scale(0.1 -0.1)">
      <defs>
       <path id="DejaVuSans-38" d="M 2034 2216 
Q 1584 2216 1326 1975 
Q 1069 1734 1069 1313 
Q 1069 891 1326 650 
Q 1584 409 2034 409 
Q 2484 409 2743 651 
Q 3003 894 3003 1313 
Q 3003 1734 2745 1975 
Q 2488 2216 2034 2216 
z
M 1403 2484 
Q 997 2584 770 2862 
Q 544 3141 544 3541 
Q 544 4100 942 4425 
Q 1341 4750 2034 4750 
Q 2731 4750 3128 4425 
Q 3525 4100 3525 3541 
Q 3525 3141 3298 2862 
Q 3072 2584 2669 2484 
Q 3125 2378 3379 2068 
Q 3634 1759 3634 1313 
Q 3634 634 3220 271 
Q 2806 -91 2034 -91 
Q 1263 -91 848 271 
Q 434 634 434 1313 
Q 434 1759 690 2068 
Q 947 2378 1403 2484 
z
M 1172 3481 
Q 1172 3119 1398 2916 
Q 1625 2713 2034 2713 
Q 2441 2713 2670 2916 
Q 2900 3119 2900 3481 
Q 2900 3844 2670 4047 
Q 2441 4250 2034 4250 
Q 1625 4250 1398 4047 
Q 1172 3844 1172 3481 
z
" transform="scale(0.015625)"/>
      </defs>
      <use xlink:href="#DejaVuSans-38"/>
     </g>
    </g>
    <g id="PathCollection_6">
     <defs>
      <path id="m6f7c825a87" d="M 0 3.162278 
C 0.838646 3.162278 1.643056 2.82908 2.236068 2.236068 
C 2.82908 1.643056 3.162278 0.838646 3.162278 0 
C 3.162278 -0.838646 2.82908 -1.643056 2.236068 -2.236068 
C 1.643056 -2.82908 0.838646 -3.162278 0 -3.162278 
C -0.838646 -3.162278 -1.643056 -2.82908 -2.236068 -2.236068 
C -2.82908 -1.643056 -3.162278 -0.838646 -3.162278 0 
C -3.162278 0.838646 -2.82908 1.643056 -2.236068 2.236068 
C -1.643056 2.82908 -0.838646 3.162278 0 3.162278 
z
" style="stroke: #2ca02c"/>
     </defs>
     <g>
      <use xlink:href="#m6f7c825a87" x="58.765625" y="69.205625" style="fill: #2ca02c; stroke: #2ca02c"/>
     </g>
    </g>
    <g id="text_18">
     <!-- 10 -->
     <g transform="translate(76.765625 71.830625) scale(0.1 -0.1)">
      <use xlink:href="#DejaVuSans-31"/>
      <use xlink:href="#DejaVuSans-30" x="63.623047"/>
     </g>
    </g>
   </g>
   <g id="legend_2">
    <g id="patch_8">
     <path d="M 316.604375 261.112 
L 389.885625 261.112 
Q 391.885625 261.112 391.885625 259.112 
L 391.885625 190.201687 
Q 391.885625 188.201687 389.885625 188.201687 
L 316.604375 188.201687 
Q 314.604375 188.201687 314.604375 190.201687 
L 314.604375 259.112 
Q 314.604375 261.112 316.604375 261.112 
z
" style="fill: #ffffff; opacity: 0.8; stroke: #cccccc; stroke-linejoin: miter"/>
    </g>
    <g id="text_19">
     <!-- neighborhood -->
     <g transform="translate(318.604375 199.800125) scale(0.1 -0.1)">
      <defs>
       <path id="DejaVuSans-67" d="M 2906 1791 
Q 2906 2416 2648 2759 
Q 2391 3103 1925 3103 
Q 1463 3103 1205 2759 
Q 947 2416 947 1791 
Q 947 1169 1205 825 
Q 1463 481 1925 481 
Q 2391 481 2648 825 
Q 2906 1169 2906 1791 
z
M 3481 434 
Q 3481 -459 3084 -895 
Q 2688 -1331 1869 -1331 
Q 1566 -1331 1297 -1286 
Q 1028 -1241 775 -1147 
L 775 -588 
Q 1028 -725 1275 -790 
Q 1522 -856 1778 -856 
Q 2344 -856 2625 -561 
Q 2906 -266 2906 331 
L 2906 616 
Q 2728 306 2450 153 
Q 2172 0 1784 0 
Q 1141 0 747 490 
Q 353 981 353 1791 
Q 353 2603 747 3093 
Q 1141 3584 1784 3584 
Q 2172 3584 2450 3431 
Q 2728 3278 2906 2969 
L 2906 3500 
L 3481 3500 
L 3481 434 
z
" transform="scale(0.015625)"/>
       <path id="DejaVuSans-62" d="M 3116 1747 
Q 3116 2381 2855 2742 
Q 2594 3103 2138 3103 
Q 1681 3103 1420 2742 
Q 1159 2381 1159 1747 
Q 1159 1113 1420 752 
Q 1681 391 2138 391 
Q 2594 391 2855 752 
Q 3116 1113 3116 1747 
z
M 1159 2969 
Q 1341 3281 1617 3432 
Q 1894 3584 2278 3584 
Q 2916 3584 3314 3078 
Q 3713 2572 3713 1747 
Q 3713 922 3314 415 
Q 2916 -91 2278 -91 
Q 1894 -91 1617 61 
Q 1341 213 1159 525 
L 1159 0 
L 581 0 
L 581 4863 
L 1159 4863 
L 1159 2969 
z
" transform="scale(0.015625)"/>
      </defs>
      <use xlink:href="#DejaVuSans-6e"/>
      <use xlink:href="#DejaVuSans-65" x="63.378906"/>
      <use xlink:href="#DejaVuSans-69" x="124.902344"/>
      <use xlink:href="#DejaVuSans-67" x="152.685547"/>
      <use xlink:href="#DejaVuSans-68" x="216.162109"/>
      <use xlink:href="#DejaVuSans-62" x="279.541016"/>
      <use xlink:href="#DejaVuSans-6f" x="343.017578"/>
      <use xlink:href="#DejaVuSans-72" x="404.199219"/>
      <use xlink:href="#DejaVuSans-68" x="443.5625"/>
      <use xlink:href="#DejaVuSans-6f" x="506.941406"/>
      <use xlink:href="#DejaVuSans-6f" x="568.123047"/>
      <use xlink:href="#DejaVuSans-64" x="629.304688"/>
     </g>
     <!-- radius -->
     <g transform="translate(318.604375 210.997937) scale(0.1 -0.1)">
      <use xlink:href="#DejaVuSans-72"/>
      <use xlink:href="#DejaVuSans-61" x="41.113281"/>
      <use xlink:href="#DejaVuSans-64" x="102.392578"/>
      <use xlink:href="#DejaVuSans-69" x="165.869141"/>
      <use xlink:href="#DejaVuSans-75" x="193.652344"/>
      <use xlink:href="#DejaVuSans-73" x="257.03125"/>
     </g>
    </g>
    <g id="line2d_13">
     <defs>
      <path id="mc81128e026" d="M 0 2.236068 
C 0.593012 2.236068 1.161816 2.000462 1.581139 1.581139 
C 2.000462 1.161816 2.236068 0.593012 2.236068 0 
C 2.236068 -0.593012 2.000462 -1.161816 1.581139 -1.581139 
C 1.161816 -2.000462 0.593012 -2.236068 0 -2.236068 
C -0.593012 -2.236068 -1.161816 -2.000462 -1.581139 -1.581139 
C -2.000462 -1.161816 -2.236068 -0.593012 -2.236068 0 
C -2.236068 0.593012 -2.000462 1.161816 -1.581139 1.581139 
C -1.161816 2.000462 -0.593012 2.236068 0 2.236068 
z
" style="stroke: #000000"/>
     </defs>
     <g>
      <use xlink:href="#mc81128e026" x="346.045" y="222.176062" style="stroke: #000000"/>
     </g>
    </g>
    <g id="text_20">
     <!-- $\mathdefault{1}$ -->
     <g transform="translate(364.045 225.676062) scale(0.1 -0.1)">
      <use xlink:href="#DejaVuSans-31" transform="translate(0 0.09375)"/>
     </g>
    </g>
    <g id="line2d_14">
     <defs>
      <path id="m2fcab7608a" d="M 0 3.162278 
C 0.838646 3.162278 1.643056 2.82908 2.236068 2.236068 
C 2.82908 1.643056 3.162278 0.838646 3.162278 0 
C 3.162278 -0.838646 2.82908 -1.643056 2.236068 -2.236068 
C 1.643056 -2.82908 0.838646 -3.162278 0 -3.162278 
C -0.838646 -3.162278 -1.643056 -2.82908 -2.236068 -2.236068 
C -2.82908 -1.643056 -3.162278 -0.838646 -3.162278 0 
C -3.162278 0.838646 -2.82908 1.643056 -2.236068 2.236068 
C -1.643056 2.82908 -0.838646 3.162278 0 3.162278 
z
" style="stroke: #000000"/>
     </defs>
     <g>
      <use xlink:href="#m2fcab7608a" x="346.045" y="236.854187" style="stroke: #000000"/>
     </g>
    </g>
    <g id="text_21">
     <!-- $\mathdefault{2}$ -->
     <g transform="translate(364.045 240.354187) scale(0.1 -0.1)">
      <use xlink:href="#DejaVuSans-32" transform="translate(0 0.78125)"/>
     </g>
    </g>
    <g id="line2d_15">
     <defs>
      <path id="m64cb20fc83" d="M 0 3.872983 
C 1.027127 3.872983 2.012324 3.464901 2.738613 2.738613 
C 3.464901 2.012324 3.872983 1.027127 3.872983 0 
C 3.872983 -1.027127 3.464901 -2.012324 2.738613 -2.738613 
C 2.012324 -3.464901 1.027127 -3.872983 0 -3.872983 
C -1.027127 -3.872983 -2.012324 -3.464901 -2.738613 -2.738613 
C -3.464901 -2.012324 -3.872983 -1.027127 -3.872983 0 
C -3.872983 1.027127 -3.464901 2.012324 -2.738613 2.738613 
C -2.012324 3.464901 -1.027127 3.872983 0 3.872983 
z
" style="stroke: #000000"/>
     </defs>
     <g>
      <use xlink:href="#m64cb20fc83" x="346.045" y="251.532312" style="stroke: #000000"/>
     </g>
    </g>
    <g id="text_22">
     <!-- $\mathdefault{3}$ -->
     <g transform="translate(364.045 255.032312) scale(0.1 -0.1)">
      <defs>
       <path id="DejaVuSans-33" d="M 2597 2516 
Q 3050 2419 3304 2112 
Q 3559 1806 3559 1356 
Q 3559 666 3084 287 
Q 2609 -91 1734 -91 
Q 1441 -91 1130 -33 
Q 819 25 488 141 
L 488 750 
Q 750 597 1062 519 
Q 1375 441 1716 441 
Q 2309 441 2620 675 
Q 2931 909 2931 1356 
Q 2931 1769 2642 2001 
Q 2353 2234 1838 2234 
L 1294 2234 
L 1294 2753 
L 1863 2753 
Q 2328 2753 2575 2939 
Q 2822 3125 2822 3475 
Q 2822 3834 2567 4026 
Q 2313 4219 1838 4219 
Q 1578 4219 1281 4162 
Q 984 4106 628 3988 
L 628 4550 
Q 988 4650 1302 4700 
Q 1616 4750 1894 4750 
Q 2613 4750 3031 4423 
Q 3450 4097 3450 3541 
Q 3450 3153 3228 2886 
Q 3006 2619 2597 2516 
z
" transform="scale(0.015625)"/>
      </defs>
      <use xlink:href="#DejaVuSans-33" transform="translate(0 0.78125)"/>
     </g>
    </g>
   </g>
  </g>
 </g>
 <defs>
  <clipPath id="p20d8ec174a">
   <rect x="39.765625" y="-0" width="357.12" height="266.112"/>
  </clipPath>
 </defs>
</svg>
